<?xml version="1.0" encoding="UTF-8"?>
<svg version="1.1" xmlns="http://www.w3.org/2000/svg" width="1024" height="1024" viewBox="0 0 1024 1024">
    <defs>
        <clipPath id="rounded-corners">
            <rect x="0" y="0" width="1024" height="1024" rx="80" ry="80" />
        </clipPath>
    </defs>

    <g clip-path="url(#rounded-corners)">
        
        <rect x="0" y="0" width="1024" height="1024" fill="#FFFFFF"/>

        <path d="M0 0 C337.92 0 675.84 0 1024 0 C1024 337.92 1024 675.84 1024 1024 C686.08 1024 348.16 1024 0 1024 C0 686.08 0 348.16 0 0 Z " fill="#0B0B0B" transform="translate(0,0)"/>
        <path d="M0 0 C7.64050232 0.01146224 15.28100589 0.01674614 22.92151475 0.02170396 C38.55578624 0.03197746 54.1900404 0.04940234 69.82429922 0.07202756 C76.98749201 20.09825764 83.93038516 40.15919184 90.32429922 60.44702756 C96.42377445 79.73447612 102.7429062 98.94023064 109.16695058 118.12134397 C112.06687874 126.78117356 114.95653048 135.44443935 117.84773672 144.10718381 C118.14737073 145.00494535 118.44700475 145.90270689 118.75571859 146.82767332 C121.21886832 154.2078346 121.21886832 154.2078346 122.42652166 157.8268646 C123.96259692 162.42993544 125.49925648 167.0328096 127.03718984 171.63525999 C135.41449375 196.70715288 143.6899263 221.80997745 151.83652532 246.95785177 C153.14754318 251.0021539 154.4732228 255.04086918 155.82429922 259.07202756 C166.23739561 233.29127886 176.33261519 207.39233747 186.35554922 181.45776975 C190.00350907 172.01970055 193.6607407 162.58522905 197.3187145 153.15103757 C198.50219128 150.09682289 199.68382183 147.04189944 200.8650707 143.98682249 C204.73677414 133.98078695 208.64193009 123.98970305 212.60945547 114.02124631 C213.73774448 111.1747359 214.86522013 108.32790475 215.99242055 105.48096311 C217.05031312 102.81986392 218.12010091 100.16375657 219.19026601 97.50757444 C219.82409898 95.90820809 220.45735338 94.30861228 221.08992422 92.70874631 C221.53206007 91.62807134 221.53206007 91.62807134 221.98312795 90.52556455 C223.47012129 86.72987963 223.47012129 86.72987963 223.56306875 82.71314085 C222.68273745 80.75756022 221.64596444 79.04002037 220.44929922 77.25952756 C214.69404847 68.31061166 212.90241138 59.6802298 213.82429922 49.07202756 C216.55398063 37.45138383 222.75808143 28.44619508 232.82429922 22.07202756 C243.78939649 16.29075031 253.98052254 15.71408033 265.96883047 19.03296506 C276.45340934 22.84814698 284.07171646 30.62716899 288.78133047 40.54468381 C292.84900278 50.40155268 293.36036472 60.65993182 289.80476797 70.82593381 C285.09010366 81.6264596 276.73468792 89.62705439 265.82429922 94.07202756 C262.32429922 94.82202756 262.32429922 94.82202756 259.82429922 95.07202756 C259.56831708 95.86995222 259.56831708 95.86995222 259.3071636 96.68399656 C257.36998233 102.61959549 255.17852623 108.42157272 252.86726797 114.22046506 C252.48793111 115.17776014 252.10859426 116.13505521 251.71776235 117.12135923 C250.48482547 120.23086746 249.24835277 123.33895602 248.01179922 126.44702756 C247.14858494 128.62216885 246.28554962 130.79738117 245.42268789 132.97266233 C240.23869148 146.03414863 235.0215026 159.08215029 229.78834951 172.123999 C225.33587759 183.22619425 220.97047546 194.36049013 216.63679922 205.50952756 C209.43120566 224.04379643 202.10615885 242.52994222 194.76179922 261.00952756 C194.4743345 261.73288423 194.18686979 262.4562409 193.89069402 263.20151746 C191.26804476 269.80088404 188.64489585 276.40005193 186.02115285 282.99898374 C180.52681988 296.8178871 175.03898789 310.63936376 169.55577505 324.46268308 C168.11981365 328.08264271 166.68283692 331.70219898 165.24593008 335.32178342 C164.80039281 336.4449748 164.35485555 337.56816617 163.89581716 338.72539365 C163.04120145 340.87974263 162.18589231 343.0338167 161.32980764 345.18758237 C159.42343009 349.992723 157.53727391 354.80346486 155.70515859 359.63745725 C155.38190603 360.4863754 155.05865346 361.33529356 154.72560537 362.2099365 C154.13296634 363.77197013 153.54616468 365.33623655 152.9664501 366.90311277 C151.04572482 371.96131476 151.04572482 371.96131476 148.82429922 373.07202756 C141.3730059 351.44359719 134.02416492 329.78567398 126.82429922 308.07202756 C124.9101649 302.30035124 122.99365409 296.52946998 121.07429922 290.75952756 C120.70156881 289.6385568 120.70156881 289.6385568 120.32130849 288.49494016 C116.55214461 277.16684372 112.70735896 265.86610086 108.83003652 254.57462156 C103.6937817 239.61559083 98.68935133 224.62149068 93.82429922 209.57202756 C89.43904813 196.01017077 84.96077998 182.48758621 80.32429922 169.00952756 C71.58448971 143.59832193 63.13586512 118.08984807 54.65819204 92.59032285 C52.03157464 84.6912929 49.39502989 76.79566331 46.74617422 68.90405881 C46.16947605 67.18377533 45.5928139 65.46347977 45.01619375 63.74317014 C44.24376616 61.4388349 43.47047284 59.13481539 42.69386709 56.83188474 C42.01863105 54.8294498 41.34683849 52.82589283 40.67586172 50.82202756 C40.31315176 49.74437131 39.95044179 48.66671506 39.57674062 47.55640256 C38.82429922 45.07202756 38.82429922 45.07202756 38.82429922 43.07202756 C21.81131816 43.15634068 4.79843729 43.2516212 -12.21440947 43.35955465 C-20.11579403 43.40943393 -28.01716947 43.45587705 -35.91862071 43.49390256 C-42.81467964 43.52709874 -49.71066224 43.56707645 -56.60663635 43.61481762 C-60.24967736 43.63981181 -63.89266954 43.66166874 -67.53577197 43.67537153 C-95.85128487 43.69856384 -95.85128487 43.69856384 -123.73820078 48.19702756 C-124.60042246 48.40658079 -125.46264414 48.61613401 -126.35099375 48.83203733 C-135.44898242 51.18531037 -143.79127566 54.88527504 -152.17570078 59.07202756 C-153.15409922 59.54253538 -154.13249766 60.01304319 -155.14054453 60.49780881 C-168.91655938 67.52046901 -181.16013398 77.31834645 -192.17570078 88.07202756 C-192.95042735 88.78487913 -193.72515391 89.49773069 -194.52335703 90.23218381 C-222.13058833 116.28133504 -236.0376758 157.76112797 -237.23867381 195.02596891 C-237.35226891 200.34024686 -237.36664258 205.65515617 -237.37882578 210.97046506 C-237.38165316 211.81460588 -237.38448054 212.6587467 -237.38739359 213.52846754 C-237.40229475 218.00181221 -237.41157967 222.47512543 -237.41593516 226.94849241 C-237.42030699 230.59638133 -237.43416113 234.24403203 -237.45695078 237.89185178 C-237.7896579 266.62556238 -237.7896579 266.62556238 -234.17570078 295.07202756 C-233.95124278 296.20366331 -233.72678477 297.33529905 -233.495525 298.50122678 C-232.908866 301.14185944 -232.24101239 303.72456429 -231.48820078 306.32202756 C-231.23328867 307.22275999 -230.97837656 308.12349241 -230.71573985 309.05151975 C-220.01023438 345.33768345 -197.01704794 375.92368647 -165.17570078 396.07202756 C-163.63849375 397.0523596 -163.63849375 397.0523596 -162.07023203 398.05249631 C-144.65964674 408.69621445 -125.24277057 413.50465987 -105.17570078 416.07202756 C-103.87735206 416.23973283 -102.57900334 416.4074381 -101.24131072 416.58022535 C-95.68688751 417.19060689 -90.16561876 417.24191985 -84.5822407 417.26630247 C-83.44370656 417.27491812 -82.30517242 417.28353376 -81.13213724 417.29241049 C-77.33246501 417.31972601 -73.53279071 417.34003383 -69.73307383 417.3601135 C-67.69861854 417.37297407 -65.66416878 417.38654387 -63.6297185 417.40017411 C-38.06252394 417.57064907 -12.49466257 417.65572523 13.0729841 417.72409284 C16.39723478 417.73314013 19.72148496 417.74235 23.04573476 417.75171506 C23.87187905 417.75403498 24.69802333 417.75635489 25.54920229 417.7587451 C38.93622622 417.79753053 52.32267722 417.87809712 65.70939407 417.97484383 C79.47327199 418.07348793 93.23685243 418.13028413 107.0010758 418.14767134 C114.72150651 418.15855638 122.44088807 418.18814192 130.16096342 418.26562345 C136.7340195 418.33157714 143.30589308 418.36001071 149.87927321 418.34005591 C153.23014981 418.33105513 156.57641571 418.34557759 159.92721784 418.39674604 C175.23404556 419.23003736 175.23404556 419.23003736 188.69940335 413.24775755 C190.95176297 411.01384408 192.88566256 408.57911459 194.82429922 406.07202756 C196.33985532 404.67799476 197.88047457 403.30989038 199.46101797 401.98999631 C207.26434467 395.23362339 207.26434467 395.23362339 211.92195547 386.32202756 C212.12443687 382.77969136 212.12443687 382.77969136 211.92586172 379.31812131 C211.6437846 370.30250256 216.95792297 361.59621438 222.82429922 355.07202756 C233.64798008 345.67996728 242.71704179 344.21807713 256.57039297 344.87671506 C266.46680836 345.73429005 274.36108304 351.20369162 281.01179922 358.25952756 C288.97886289 368.34386569 290.26361072 378.61463966 288.82429922 391.07202756 C286.85200058 400.82910492 281.49165916 408.78413915 273.32429922 414.44702756 C265.32509127 419.35810591 258.28999938 421.24941308 248.88679922 421.19702756 C248.19650625 421.20089475 247.50621328 421.20476194 246.79500234 421.20874631 C243.5636452 421.20262052 240.9804329 421.12746956 237.91463125 420.03882444 C236.89482168 420.04978147 235.87501211 420.0607385 234.82429922 420.07202756 C232.55393172 422.54832221 231.10966081 425.55507923 229.46883047 428.47046506 C220.55369867 442.31866866 208.11588505 456.3821617 191.37788808 460.23590696 C167.03327391 464.73486143 140.76706261 461.86778815 116.20550954 460.90131223 C91.70041592 459.96089697 67.22074912 459.96051407 42.7003094 460.07623255 C39.41713378 460.09154487 36.13395523 460.10543382 32.85077131 460.11883962 C24.02635278 460.15494819 15.20194342 460.19272663 6.37754762 460.23404062 C-14.22474709 460.33019417 -34.82694309 460.40807429 -55.42949551 460.39967817 C-60.38166075 460.39785095 -65.33367313 460.4011597 -70.28581011 460.41897619 C-94.55842118 460.50300867 -117.75340503 460.32816133 -141.17570078 453.07202756 C-142.04533457 452.81324827 -142.91496836 452.55446897 -143.81095469 452.28784788 C-170.61266356 444.2568635 -192.9843627 431.20590891 -214.17570078 413.07202756 C-215.26431406 412.16710569 -215.26431406 412.16710569 -216.37491953 411.24390256 C-220.40378782 407.8366311 -223.94175083 404.24036555 -227.34366953 400.20874631 C-228.60146166 398.74176915 -229.89855601 397.30786632 -231.22648203 395.90405881 C-241.77823045 384.71508225 -249.95247045 371.59566405 -257.17570078 358.07202756 C-257.5013502 357.46987424 -257.82699961 356.86772092 -258.16251719 356.24732053 C-275.10243484 324.67184263 -281.29897734 291.5776797 -281.37882578 256.00952756 C-281.38165316 255.1486453 -281.38448054 254.28776304 -281.38739359 253.40079343 C-281.40231852 248.83091535 -281.41158618 244.26106819 -281.41593516 239.69116819 C-281.42029128 235.97361886 -281.43408056 232.25630535 -281.45695078 228.53882444 C-281.85522939 162.43634636 -268.07823164 103.44186954 -220.55070078 55.07202756 C-184.90810219 19.49281679 -139.19066911 1.52780019 -89.29679453 0.51343381 C-88.30159737 0.4923764 -87.30640021 0.47131898 -86.28104556 0.44962347 C-57.52417346 -0.141673 -28.761353 -0.04393455 0 0 Z " fill="#D5AD36" transform="translate(505.17570078372955,230.92797243595123)"/>
        <path d="M0 0 C2.24443434 0.00373745 4.48887032 0.00658096 6.73330688 0.00857544 C12.59562815 0.01615426 18.45784783 0.03575237 24.32012939 0.0579834 C30.32017646 0.07856675 36.32024019 0.08760368 42.3203125 0.09765625 C54.05994008 0.11900449 65.79949279 0.1530697 77.5390625 0.1953125 C78.17784139 1.7835791 78.81575522 3.37219363 79.45330811 4.96095276 C79.98630587 6.28788572 79.98630587 6.28788572 80.53007126 7.6416254 C82.55279739 12.76100544 84.32058069 17.97189271 86.11328125 23.17504883 C86.79693978 25.15563327 87.48818056 27.13347218 88.1796875 29.11132812 C88.61764776 30.37744505 89.05516451 31.6437155 89.4921875 32.91015625 C90.08241699 34.61353149 90.08241699 34.61353149 90.68457031 36.35131836 C91.5390625 39.1953125 91.5390625 39.1953125 91.5390625 42.1953125 C90.25914429 42.20117874 88.97922607 42.20704498 87.66052246 42.21308899 C75.53928253 42.27055143 63.41821797 42.343434 51.29715729 42.43102741 C45.06709614 42.47556411 38.83709788 42.51485629 32.60693359 42.54174805 C26.58322653 42.56794854 20.55976368 42.60846704 14.53620911 42.65849876 C12.24960898 42.675055 9.96296673 42.68663868 7.67631531 42.69292641 C-16.01690394 42.764606 -38.32723967 45.07509791 -56.93359375 61.578125 C-76.8358561 82.65110866 -75.94676395 108.29359574 -75.7835083 135.37207031 C-75.77011395 138.37889862 -75.77534125 141.38557801 -75.78036499 144.39242268 C-76.7674269 182.76480141 -76.7674269 182.76480141 -60.4609375 216.1953125 C-59.82027344 216.93394531 -59.17960937 217.67257812 -58.51953125 218.43359375 C-47.34678186 230.41890673 -31.20907564 236.09719785 -15.14514542 237.48093224 C-11.80093394 237.59814292 -8.46782109 237.63187386 -5.12158203 237.62768555 C-3.87108063 237.6378772 -2.62057922 237.64806885 -1.33218384 237.65856934 C2.04717125 237.68331981 5.42609409 237.69537496 8.80550146 237.70142341 C12.35559909 237.71090022 15.90557554 237.73710985 19.45559692 237.76142883 C26.15580726 237.80484456 32.85599374 237.83354365 39.55630124 237.85675222 C47.19379438 237.88393881 54.8311641 237.92784108 62.46856856 237.97304094 C78.15866944 238.06552949 93.84879365 238.13737265 109.5390625 238.1953125 C111.68170763 243.69210903 113.81777634 249.19139767 115.94775391 254.69311523 C116.67348298 256.56491176 117.40101368 258.43601078 118.13037109 260.30639648 C119.17758469 262.99281992 120.21832288 265.68167375 121.2578125 268.37109375 C121.58591919 269.20868729 121.91402588 270.04628082 122.2520752 270.90925598 C122.55238647 271.68983871 122.85269775 272.47042145 123.16210938 273.2746582 C123.56181946 274.30391167 123.56181946 274.30391167 123.96960449 275.35395813 C124.5390625 277.1953125 124.5390625 277.1953125 124.5390625 280.1953125 C105.24057713 280.265604 85.94211799 280.31839889 66.64353085 280.35074902 C57.68149964 280.3661735 48.71954829 280.38717781 39.75756836 280.42163086 C31.94015605 280.45166928 24.12280162 280.47091956 16.3053332 280.47757798 C12.17161643 280.48146595 8.03806515 280.49050937 3.90440178 280.51250267 C0.00150525 280.53309692 -3.90116005 280.53910081 -7.80410576 280.53463554 C-9.22493122 280.53545062 -10.64576566 280.5412782 -12.06654358 280.55292892 C-42.06993524 280.7865773 -68.55673102 269.13258439 -89.7734375 248.2578125 C-102.4329226 235.34958249 -112.34764181 218.59845925 -117.4609375 201.1953125 C-117.67105469 200.50695312 -117.88117188 199.81859375 -118.09765625 199.109375 C-121.22122332 187.89997827 -120.63927931 176.0379365 -120.6640625 164.51171875 C-120.66688988 163.61786909 -120.66971725 162.72401943 -120.67263031 161.80308342 C-120.68755698 157.06736845 -120.69682613 152.3316834 -120.70117188 147.59594727 C-120.70662999 142.76197577 -120.73062051 137.92828969 -120.75914383 133.09440708 C-120.77798572 129.3268917 -120.78298722 125.55944194 -120.78450775 121.79188347 C-120.78748929 120.0129027 -120.7953603 118.23392178 -120.80869293 116.45498848 C-121.03799176 83.49397085 -112.1871506 55.56367144 -89.2109375 31.5078125 C-63.75542454 6.94359901 -34.43643454 -0.16974309 0 0 Z " fill="#DCB53A" transform="translate(439.4609375,321.8046875)"/>
        <path d="M0 0 C6.6 0 13.2 0 20 0 C20.33 35.64 20.66 71.28 21 108 C14.07 108 7.14 108 0 108 C-0.495 103.545 -0.495 103.545 -1 99 C-1.85271484 99.70576172 -1.85271484 99.70576172 -2.72265625 100.42578125 C-3.88087891 101.35970703 -3.88087891 101.35970703 -5.0625 102.3125 C-5.81660156 102.92738281 -6.57070313 103.54226563 -7.34765625 104.17578125 C-15.48379205 109.77162134 -23.51674875 109.83482627 -33 109 C-43.12985931 106.65008506 -50.85671699 100.4244249 -56.45703125 91.8125 C-62.58914994 80.6349672 -63.81545632 67.96509047 -61.3046875 55.56640625 C-58.14279389 45.13747143 -52.42592151 36.34688089 -42.91796875 30.78125 C-32.84313494 25.5475701 -21.12178928 25.51661963 -10.34375 28.85546875 C-6.99411935 30.49120505 -4.03334459 32.83332529 -1 35 C-0.67 23.45 -0.34 11.9 0 0 Z " fill="#D1A72D" transform="translate(430,730)"/>
        <path d="M0 0 C8.19137799 5.70914224 13.539399 13.78969529 16.0625 23.4375 C17.34024643 37.10303334 17.0226997 49.70001768 8.9375 61.1875 C2.36085074 69.0288895 -6.27382677 74.55648608 -16.54541016 75.73730469 C-19.30883567 75.87440021 -22.04590678 75.90542845 -24.8125 75.875 C-25.78340576 75.86670166 -26.75431152 75.85840332 -27.75463867 75.84985352 C-39.15903524 75.58057905 -47.70493596 72.53000152 -55.9375 64.4375 C-64.70679085 54.57421841 -67.72351244 43.1227356 -67.3203125 30.0859375 C-65.97051053 17.22149827 -59.97727537 8.46583446 -50.37890625 0.19921875 C-46.53689998 -2.57317298 -42.44623764 -4.18418124 -37.9375 -5.5625 C-37.33679688 -5.75457031 -36.73609375 -5.94664062 -36.1171875 -6.14453125 C-23.79692641 -8.50701859 -10.72897292 -6.43738375 0 0 Z " fill="#C29824" transform="translate(701.9375,763.5625)"/>
        <path d="M0 0 C7.70593738 7.06498985 12.99246284 15.81903998 13.5 26.3203125 C13.52363774 28.28241014 13.52426167 30.24489682 13.50390625 32.20703125 C13.49560791 33.22941895 13.48730957 34.25180664 13.47875977 35.30517578 C13.19212608 48.06598494 9.39638692 56.66142258 0.29296875 65.64453125 C-9.66654335 74.04918281 -22.48587082 74.8501124 -34.94238281 74.07470703 C-46.36006633 73.04157186 -54.94455265 66.83404784 -62.20703125 58.26953125 C-67.92063638 50.41009251 -69.12818656 42.66088341 -69.18359375 33.20703125 C-69.20421875 32.34658203 -69.22484375 31.48613281 -69.24609375 30.59960938 C-69.31337796 19.43884115 -65.25572829 10.38811547 -57.74609375 2.20703125 C-42.71965433 -12.10075237 -16.36242709 -11.90268637 0 0 Z " fill="#D4AA30" transform="translate(343.93359375,765.10546875)"/>
        <path d="M0 0 C1.2684375 0.51046875 1.2684375 0.51046875 2.5625 1.03125 C11.75277705 5.17808233 19.6725239 11.73615669 24 21 C24 21.66 24 22.32 24 23 C21.42573716 24.39489126 18.84296943 25.76570979 16.25 27.125 C15.52039063 27.52332031 14.79078125 27.92164063 14.0390625 28.33203125 C13.33007812 28.69941406 12.62109375 29.06679688 11.890625 29.4453125 C11.24125977 29.79094238 10.59189453 30.13657227 9.92285156 30.49267578 C8 31 8 31 5.89746094 30.24169922 C4 29 4 29 1.75 26.6875 C-4.50048266 20.57907377 -11.47579352 17.05957185 -20.3125 16.6875 C-29.18556467 16.94403418 -36.56049899 19.89109837 -43 26 C-49.7652304 33.34661739 -51.55623688 42.20294548 -51.4375 51.9375 C-51.42920166 52.81631836 -51.42090332 53.69513672 -51.41235352 54.60058594 C-51.15741939 64.37336327 -48.63419329 71.16574337 -41.84765625 78.3125 C-35.71784107 83.91097813 -28.7014235 85.56468301 -20.625 86.3125 C-11.82859412 85.55418915 -4.38982072 83.27416786 2 77 C3.8623495 74.73792671 5.41564125 72.47556055 7 70 C11.42973678 70.59107432 15.19492148 71.70945023 19.3125 73.4375 C20.36050781 73.86933594 21.40851563 74.30117188 22.48828125 74.74609375 C25 76 25 76 26 78 C22.0674579 88.41187337 15.53079612 95.44598585 6 101 C-8.09524831 107.2645548 -25.96933386 108.89948666 -40.75 104 C-56.5059556 97.24202386 -66.59583011 85.62963624 -73 70 C-77.62722583 55.14660509 -76.32271066 38.69932219 -69.45703125 24.8984375 C-62.2801734 11.66148686 -52.13420825 3.7335518 -38 -1.4375 C-26.1229056 -4.75736253 -11.48058638 -4.68287076 0 0 Z " fill="#DAB238" transform="translate(239,733)"/>
        <path d="M0 0 C7.92 0 15.84 0 24 0 C25.01578125 2.86558594 26.0315625 5.73117187 27.078125 8.68359375 C33.64727361 27.20319042 40.22436683 45.71951316 46.9375 64.1875 C47.19188843 64.88849823 47.44627686 65.58949646 47.70837402 66.31173706 C48.41738609 68.26435629 49.1281966 70.21630857 49.83984375 72.16796875 C50.23550537 73.25360107 50.63116699 74.3392334 51.03881836 75.45776367 C51.92922004 77.9434378 51.92922004 77.9434378 53 80 C55.45274959 73.26084406 57.90501069 66.52151057 60.35671902 59.78197575 C61.49629944 56.6494105 62.63606922 53.51691449 63.77612305 50.38452148 C69.88421278 33.60164073 75.96228828 16.80833241 82 0 C89.26 0 96.52 0 104 0 C100.62515886 11.24947047 100.62515886 11.24947047 99.22924805 15.10620117 C98.91380035 15.98196304 98.59835266 16.85772491 98.27334595 17.76002502 C97.93950897 18.67839645 97.605672 19.59676788 97.26171875 20.54296875 C96.90403412 21.53389023 96.54634949 22.52481171 96.17782593 23.54576111 C95.01683893 26.76056742 93.85218068 29.97403024 92.6875 33.1875 C91.88113861 35.41835207 91.07507056 37.6493102 90.26928711 39.88037109 C89.04306634 43.27538115 87.81663914 46.67031507 86.58918762 50.06488037 C83.98486093 57.26772921 81.3896695 64.47378029 78.8046875 71.68359375 C78.32178001 73.03045509 78.32178001 73.03045509 77.82911682 74.40452576 C76.61309259 77.79696998 75.39749818 81.18956779 74.1824646 84.58236694 C73.36302151 86.87019251 72.54288728 89.15776934 71.72265625 91.4453125 C71.48904388 92.09837875 71.25543152 92.75144501 71.01473999 93.42430115 C69.3852963 97.96705631 67.69504577 102.47987794 66 107 C57.42 107 48.84 107 40 107 C34.84534159 94.28784575 29.93164536 81.53557078 25.2996521 68.62515259 C19.41280764 52.22472095 13.3706021 35.89332412 7.07348633 19.64599609 C6.8195108 18.98902237 6.56553528 18.33204865 6.30386353 17.65516663 C5.63145581 15.91745012 4.95588901 14.18095689 4.2800293 12.44458008 C2.75200439 8.3326397 1.3871883 4.1615649 0 0 Z " fill="#C89D27" transform="translate(537,731)"/>
        <path d="M0 0 C0.78165527 0.00829834 1.56331055 0.01659668 2.36865234 0.02514648 C12.42700501 0.31443994 21.40482587 2.39990665 28.73046875 9.6484375 C36.46258458 18.39241046 36.60313308 26.41022774 36.5078125 37.58984375 C36.5049826 38.84511368 36.50215271 40.10038361 36.49923706 41.39369202 C36.48997127 44.70964347 36.47204299 48.02531301 36.4498291 51.34118652 C36.42926595 54.73329245 36.42021309 58.12542766 36.41015625 61.51757812 C36.38815121 68.1576392 36.35364964 74.79753109 36.3125 81.4375 C29.7125 81.4375 23.1125 81.4375 16.3125 81.4375 C15.8175 77.4775 15.8175 77.4775 15.3125 73.4375 C14.79300781 73.91960937 14.27351562 74.40171875 13.73828125 74.8984375 C12.69220703 75.84589844 12.69220703 75.84589844 11.625 76.8125 C10.94050781 77.43898438 10.25601563 78.06546875 9.55078125 78.7109375 C2.48694931 84.15982706 -7.1883337 83.38682322 -15.6875 82.4375 C-24.25887647 80.08745309 -29.18804614 74.68657156 -33.5625 67.25 C-35.70868208 59.97682739 -35.81222736 53.06146702 -32.6875 46.0625 C-28.76211517 39.14581626 -23.23811115 35.56295536 -15.6875 33.4375 C-13.16298068 33.27910012 -10.63096536 33.22195228 -8.1015625 33.2421875 C-7.39977875 33.2450174 -6.697995 33.24784729 -5.97494507 33.25076294 C-3.75394972 33.26187488 -1.53337155 33.28696166 0.6875 33.3125 C2.20181705 33.32254146 3.71614049 33.33166527 5.23046875 33.33984375 C8.92461258 33.36178446 12.61851551 33.39625125 16.3125 33.4375 C16.02810757 31.82268483 15.73310499 30.20973568 15.43359375 28.59765625 C15.27044678 27.69926025 15.1072998 26.80086426 14.93920898 25.87524414 C14.13521963 22.74792286 12.9503979 21.2760349 10.3125 19.4375 C6.73937005 18.24645668 3.76696678 18.23221177 0 18.1875 C-1.94326172 18.14882813 -1.94326172 18.14882813 -3.92578125 18.109375 C-10.58068857 18.68986536 -14.26322803 21.6228511 -18.6875 26.4375 C-20.50631824 25.87417573 -22.31750472 25.28616086 -24.125 24.6875 C-25.13433594 24.36265625 -26.14367187 24.0378125 -27.18359375 23.703125 C-29.6875 22.4375 -29.6875 22.4375 -30.6875 20.5703125 C-30.6875 16.10458592 -27.42984908 12.73518908 -24.6875 9.4375 C-17.57383459 2.65979825 -9.73028935 -0.13446646 0 0 Z " fill="#B98F20" transform="translate(820.6875,756.5625)"/>
        <path d="M0 0 C0.6703125 0.32871094 1.340625 0.65742187 2.03125 0.99609375 C12.55741063 6.84620995 17.73511762 15.67493925 21 27 C21 32.28 21 37.56 21 43 C2.19 43 -16.62 43 -36 43 C-33.01138704 51.96583889 -31.1446634 55.81665782 -23 60 C-12.6184826 61.63274192 -5.45344634 58.6356309 3 53 C7.62 55.31 12.24 57.62 17 60 C13.2577304 69.35567401 6.0727095 74.01228992 -3 78 C-12.49159342 80.70485823 -26.07459924 80.65269864 -34.93359375 76.26171875 C-46.17958444 69.39507415 -52.04060988 61.73020085 -56.25 49.3125 C-58.79943503 37.63145221 -57.25113288 25.60784424 -51.421875 15.17578125 C-45.38227057 6.07556646 -38.56362191 0.87357091 -28.2421875 -2.58984375 C-19.25001969 -4.2347525 -8.25016202 -4.17579922 0 0 Z " fill="#CEA32B" transform="translate(520,760)"/>
        <path d="M0 0 C-1.32 5.94 -2.64 11.88 -4 18 C-6.97 18.33 -9.94 18.66 -13 19 C-15.49566689 20.04335762 -15.49566689 20.04335762 -17.375 21.5 C-19.70977603 23.15259867 -21.23247766 24.07749255 -24 25 C-25.1500831 26.96672915 -25.1500831 26.96672915 -26 29 C-26.33 29.33 -26.66 29.66 -27 30 C-27.12232644 31.47250645 -27.1777456 32.95065711 -27.20532227 34.42797852 C-27.22526749 35.36887833 -27.24521271 36.30977814 -27.26576233 37.27919006 C-27.29083107 38.81354958 -27.29083107 38.81354958 -27.31640625 40.37890625 C-27.33718735 41.42070541 -27.35796844 42.46250458 -27.37937927 43.53587341 C-27.44499057 46.87801247 -27.50381331 50.22023285 -27.5625 53.5625 C-27.60567422 55.82227418 -27.64928814 58.08204001 -27.69335938 60.34179688 C-27.80068372 65.89444699 -27.90191814 71.44717924 -28 77 C-34.6 77 -41.2 77 -48 77 C-48 51.59 -48 26.18 -48 0 C-41.4 0 -34.8 0 -28 0 C-27.67 2.64 -27.34 5.28 -27 8 C-26.484375 7.0925 -25.96875 6.185 -25.4375 5.25 C-19.56196659 -3.32949862 -8.94189076 -4.47094538 0 0 Z " fill="#C09623" transform="translate(781,760)"/>
        <path d="M0 0 C4.78033293 3.44183971 8.0792043 7.71515548 9.85546875 13.3359375 C10.70276978 22.64524492 10.18083283 29.29055752 5.04296875 37.0859375 C0.54422181 41.71322006 -5.08156768 43.43270673 -11.39453125 43.6484375 C-17.25456402 43.55221365 -21.66257004 41.70783392 -25.90625 37.65234375 C-31.94455246 30.85377077 -32.76078684 25.18230314 -32.5234375 16.26953125 C-32.02488915 11.09387985 -30.72356839 8.04648782 -27.14453125 4.3359375 C-26.66371094 3.83707031 -26.18289063 3.33820312 -25.6875 2.82421875 C-18.42000191 -3.86801564 -8.49578103 -4.78205639 0 0 Z " fill="#0B0B0B" transform="translate(688.14453125,777.6640625)"/>
        <path d="M0 0 C4.74454048 3.16855676 7.44205945 7.06868719 9.234375 12.4921875 C10.25354997 21.27854857 9.8710016 29.35516389 4.234375 36.4921875 C-1.39556556 41.30829507 -7.0875327 42.88560856 -14.39453125 42.765625 C-21.02546235 42.00093772 -25.39376221 38.36166477 -29.5390625 33.37109375 C-33.90163276 26.68830301 -33.55638664 19.16339065 -32.765625 11.4921875 C-30.46529031 4.96634531 -25.36031214 0.53241534 -19.453125 -2.8203125 C-12.10714509 -4.69951666 -6.62710807 -3.64285133 0 0 Z " fill="#0C0B0B" transform="translate(327.765625,778.5078125)"/>
        <path d="M0 0 C4.88399802 2.82231033 8.62559862 7.0695709 10.625 12.375 C10.96853516 15.31514526 10.99519452 18.22972635 11 21.1875 C11.02449219 21.96931641 11.04898438 22.75113281 11.07421875 23.55664062 C11.1031899 29.33638478 9.98546672 32.64915975 6.625 37.375 C4.58984375 39.3359375 4.58984375 39.3359375 2.5625 40.75 C1.89089844 41.23210938 1.21929687 41.71421875 0.52734375 42.2109375 C-4.36354318 45.20371841 -9.83597065 45.04180517 -15.375 44.375 C-21.02787538 42.17085363 -24.96545121 38.2887615 -28.375 33.375 C-31.21894102 26.29518908 -31.60733201 18.31992716 -29.7578125 10.8984375 C-27.42908067 5.56090171 -23.30887141 2.30290316 -18.375 -0.625 C-12.44146813 -2.60284396 -5.73646881 -2.63331235 0 0 Z " fill="#0B0B0B" transform="translate(419.375,776.625)"/>
        <path d="M0 0 C1.6173655 0.00028261 3.23473113 0.0001227 4.85209656 -0.0004425 C9.21082172 -0.00072761 13.56951896 0.00512251 17.92823768 0.01213145 C22.49527324 0.01841299 27.06230954 0.01897257 31.62934875 0.02015686 C40.26340137 0.02325608 48.89744122 0.03145037 57.53148824 0.04150635 C67.36710463 0.05271137 77.20272165 0.05818897 87.03834283 0.06320179 C107.25774673 0.07363425 127.47713916 0.09120625 147.6965332 0.11352539 C147.6965332 0.44352539 147.6965332 0.77352539 147.6965332 1.11352539 C130.79674984 1.24475472 113.89696049 1.37518031 96.99716377 1.50467682 C89.14841549 1.56483697 81.29966931 1.62524962 73.45092773 1.6862793 C66.60144783 1.73953832 59.75196431 1.79230057 52.90247619 1.84449244 C49.28349329 1.87208509 45.66451254 1.89990869 42.04553604 1.92832947 C37.98275552 1.9602233 33.91996745 1.99102825 29.85717773 2.02172852 C28.6006798 2.03169106 27.34418186 2.04165359 26.04960823 2.05191803 C20.70786879 2.09139229 15.36741048 2.12090128 10.02557373 2.08959961 C9.19287397 2.08524651 8.36017422 2.0808934 7.50224113 2.07640839 C5.39873821 2.06221173 3.29529118 2.04026475 1.19186401 2.01745605 C-3.11346669 2.13578828 -7.15041721 2.78572202 -11.3347168 3.77368164 C-13.3034668 4.11352539 -13.3034668 4.11352539 -15.3034668 3.11352539 C-16.2934668 3.44352539 -17.2834668 3.77352539 -18.3034668 4.11352539 C-19.2934668 3.78352539 -20.2834668 3.45352539 -21.3034668 3.11352539 C-23.47132941 3.3893647 -23.47132941 3.3893647 -25.7409668 3.98852539 C-26.50280273 4.17157227 -27.26463867 4.35461914 -28.04956055 4.54321289 C-29.43308155 4.89328926 -30.8160348 5.24563055 -32.19799805 5.60180664 C-33.87652767 6.00976096 -35.56528435 6.37556951 -37.2565918 6.72680664 C-43.90979206 8.13785267 -49.32677336 9.91172534 -55.3034668 13.11352539 C-56.96847123 13.45506476 -58.63525357 13.78802037 -60.3034668 14.11352539 C-62.60383253 15.11422601 -64.86455908 16.17533983 -67.11987305 17.27368164 C-69.3034668 18.11352539 -69.3034668 18.11352539 -73.3034668 18.11352539 C-73.5303418 18.75290039 -73.7572168 19.39227539 -73.9909668 20.05102539 C-74.4240918 20.73165039 -74.8572168 21.41227539 -75.3034668 22.11352539 C-76.96822366 22.45626945 -78.63542003 22.78716841 -80.3034668 23.11352539 C-82.37366574 24.27027573 -84.33478968 25.54989826 -86.3190918 26.84790039 C-88.88185134 28.48241632 -91.57465436 29.77943931 -94.3034668 31.11352539 C-97.19557039 32.66538585 -99.25572759 34.06446009 -101.5534668 36.42602539 C-103.85816868 38.67834769 -105.8076086 40.16107845 -108.4909668 41.86352539 C-115.91198297 46.65807173 -122.09005662 52.88084882 -128.3034668 59.11352539 C-129.14006836 59.91532227 -129.97666992 60.71711914 -130.83862305 61.54321289 C-135.62535544 66.17457994 -139.20133473 70.2539426 -142.3034668 76.11352539 C-143.97013346 77.78019206 -145.63680013 79.44685872 -147.3034668 81.11352539 C-151.41215877 86.59178135 -154.71078421 92.51394632 -157.92456055 98.54711914 C-159.0644484 100.6686668 -160.25377244 102.73589869 -161.4909668 104.80102539 C-163.17105749 107.87153597 -164.36266181 110.80287648 -165.5222168 114.08618164 C-166.31709131 116.148881 -167.26700499 118.03730753 -168.3034668 119.98852539 C-170.26932401 123.80018747 -171.48654246 127.66401901 -172.64331055 131.78540039 C-173.18845526 133.70792256 -173.82771269 135.60348739 -174.4909668 137.48852539 C-175.50058928 140.29240457 -175.50058928 140.29240457 -175.3034668 144.11352539 C-175.9634668 144.44352539 -176.6234668 144.77352539 -177.3034668 145.11352539 C-177.67585398 147.44094528 -178.00183546 149.77588254 -178.3034668 152.11352539 C-178.6540918 153.33040039 -179.0047168 154.54727539 -179.3659668 155.80102539 C-180.48501511 159.18122778 -180.48501511 159.18122778 -180.3034668 163.11352539 C-180.9634668 163.11352539 -181.6234668 163.11352539 -182.3034668 163.11352539 C-182.1178418 163.91790039 -181.9322168 164.72227539 -181.7409668 165.55102539 C-181.5965918 166.39665039 -181.4522168 167.24227539 -181.3034668 168.11352539 C-181.6334668 168.44352539 -181.9634668 168.77352539 -182.3034668 169.11352539 C-182.67908681 171.57266269 -183.00975166 174.01948252 -183.3034668 176.48852539 C-184.17405503 183.7252901 -184.17405503 183.7252901 -185.3034668 187.11352539 C-185.37266583 188.4895482 -185.38807201 189.86875355 -185.3659668 191.24633789 C-185.35823242 192.05329102 -185.35049805 192.86024414 -185.3425293 193.69165039 C-185.31684702 195.36613511 -185.29081555 197.04061451 -185.2644043 198.71508789 C-185.25666992 199.52977539 -185.24893555 200.34446289 -185.2409668 201.18383789 C-185.22936523 201.9136084 -185.21776367 202.64337891 -185.20581055 203.39526367 C-185.28996601 205.73773086 -185.50765719 207.98181991 -185.78759766 210.30615234 C-186.35621443 215.19324428 -186.52325277 220.04490069 -186.61987305 224.96118164 C-186.64065414 225.85848495 -186.66143524 226.75578827 -186.68284607 227.68028259 C-186.74758906 230.51212827 -186.80687197 233.3440568 -186.8659668 236.17602539 C-186.90922381 238.11027833 -186.95284024 240.04452327 -186.99682617 241.97875977 C-187.10319183 246.69026606 -187.20466499 251.40185466 -187.3034668 256.11352539 C-187.6334668 256.11352539 -187.9634668 256.11352539 -188.3034668 256.11352539 C-188.37419086 248.10492072 -188.42687895 240.09645474 -188.45890331 232.0876112 C-188.47430335 228.36542116 -188.49504534 224.64345049 -188.52978516 220.92138672 C-189.09309464 158.83225167 -173.9349968 101.99634619 -129.97900391 56.45483398 C-95.3866276 21.24939105 -49.54454391 -0.12221507 0 0 Z " fill="#F4E275" transform="translate(412.303466796875,231.886474609375)"/>
        <path d="M0 0 C4.07166495 2.90833211 7.01178079 6.03534238 8.625 10.875 C9.04641936 16.3534517 8.299874 20.06022681 5.625 24.875 C1.34421447 29.3041861 -2.01393903 31.04308438 -8.125 31.1875 C-13.40227204 31.13068726 -16.42424942 30.62821305 -20.375 26.875 C-24.14557881 23.00519543 -24.73582204 19.67302679 -25 14.4375 C-24.8381486 8.98435293 -23.93396894 5.99063821 -20.078125 2.14453125 C-14.06353945 -2.33881807 -6.99301356 -2.33100452 0 0 Z " fill="#0C0C0B" transform="translate(766.375,272.125)"/>
        <path d="M0 0 C3.8957689 2.18616935 5.98575793 4.1887161 7.8125 8.375 C8.57156957 13.68058003 8.49392075 17.93353303 6.1875 22.8125 C1.88258422 27.45727755 -1.23659709 29.61246289 -7.625 29.875 C-13.01492097 29.64065561 -15.99055727 28.8010757 -20.1875 25.375 C-23.62456312 20.65926757 -24.9468889 16.23314293 -24.1875 10.375 C-22.09260607 4.75186365 -19.06529538 1.88962915 -13.8125 -0.875 C-8.79709196 -2.30797372 -4.74104451 -2.1149641 0 0 Z " fill="#0C0B0B" transform="translate(763.1875,599.625)"/>
        <path d="M0 0 C1.03125 0.00322266 2.0625 0.00644531 3.125 0.00976562 C4.74535156 0.02233398 4.74535156 0.02233398 6.3984375 0.03515625 C8.03039062 0.04192383 8.03039062 0.04192383 9.6953125 0.04882812 C12.38807539 0.06063849 15.08072938 0.07710847 17.7734375 0.09765625 C18.49270301 12.09028485 18.49270301 12.09028485 15.5859375 15.66015625 C9.48637098 20.94644724 4.84418301 22.64482544 -3.2265625 22.09765625 C-7.48339626 20.7989612 -9.72518748 19.64916878 -12.7265625 16.34765625 C-14.61835095 12.24878128 -14.62808332 10.38008099 -13.2265625 6.09765625 C-9.30969711 1.6812486 -5.7874869 -0.03179938 0 0 Z " fill="#0B0B0A" transform="translate(819.2265625,801.90234375)"/>
        <path d="M0 0 C3.20521603 2.34528002 5.33950384 4.57226284 7.5625 7.875 C8.0575 11.34 8.0575 11.34 8.5625 14.875 C-3.3175 14.875 -15.1975 14.875 -27.4375 14.875 C-24.05950957 4.74102871 -24.05950957 4.74102871 -20.875 2.375 C-20.27558594 1.9109375 -19.67617188 1.446875 -19.05859375 0.96875 C-13.64254689 -2.68545029 -5.99376098 -1.9615945 0 0 Z " fill="#0B0B0B" transform="translate(511.4375,775.125)"/>
        <path d="M0 0 C-3.48729523 2.95216041 -7.38900375 4.57586755 -11.5625 6.3125 C-29.90667543 14.20018644 -45.72378975 25.06319445 -60 39 C-61.16208984 40.06927734 -61.16208984 40.06927734 -62.34765625 41.16015625 C-85.17880441 62.702774 -96.16845578 93.12379972 -103 123 C-103.66 123 -104.32 123 -105 123 C-105.33 122.01 -105.66 121.02 -106 120 C-105.505 119.01 -105.505 119.01 -105 118 C-104.34 118 -103.68 118 -103 118 C-102.95101563 117.13117188 -102.90203125 116.26234375 -102.8515625 115.3671875 C-102.77679688 114.21476562 -102.70203125 113.06234375 -102.625 111.875 C-102.55539062 110.73804688 -102.48578125 109.60109375 -102.4140625 108.4296875 C-102.00363555 105.03011333 -101.18797992 102.2011978 -100 99 C-99.67 98.01 -99.34 97.02 -99 96 C-96.02268994 87.48015425 -92.79209582 79.2027154 -88.75 71.125 C-88.4089624 70.44155518 -88.0679248 69.75811035 -87.71655273 69.05395508 C-86.34206749 66.36545785 -85.14841893 64.14841893 -83 62 C-81.70998449 60.17247803 -80.46306721 58.31982602 -79.21875 56.4609375 C-78.8165625 55.97882813 -78.414375 55.49671875 -78 55 C-77.34 55 -76.68 55 -76 55 C-75.87625 54.1646875 -75.87625 54.1646875 -75.75 53.3125 C-74.41613932 49.19976292 -71.25048883 45.80724035 -68 43 C-67.34 43 -66.68 43 -66 43 C-65.67 42.01 -65.34 41.02 -65 40 C-64.34 40 -63.68 40 -63 40 C-63 39.34 -63 38.68 -63 38 C-62.34 38 -61.68 38 -61 38 C-61 37.01 -61 36.02 -61 35 C-60.01 34.67 -59.02 34.34 -58 34 C-55.26185953 31.46221127 -53.07404293 29.1110644 -51 26 C-48.07132961 23.99617289 -45.49664792 22.64752739 -42 22 C-41.67 20.68 -41.34 19.36 -41 18 C-39.515 18.495 -39.515 18.495 -38 19 C-37.83242188 18.42636719 -37.66484375 17.85273438 -37.4921875 17.26171875 C-35.18543891 13.76536421 -31.84229502 12.56587898 -28.125 10.8125 C-27.40441406 10.45736328 -26.68382812 10.10222656 -25.94140625 9.73632812 C-20.55636182 7.12314358 -20.55636182 7.12314358 -17.82373047 6.51831055 C-17.22189941 6.34726807 -16.62006836 6.17622559 -16 6 C-15.67 5.34 -15.34 4.68 -15 4 C-13.25 2.3125 -13.25 2.3125 -11 1 C-8.25 1.3125 -8.25 1.3125 -6 2 C-6 1.34 -6 0.68 -6 0 C-3.50907189 -1.24546405 -2.58919267 -0.7767578 0 0 Z " fill="#ECD962" transform="translate(373,280)"/>
        <path d="M0 0 C1.6173655 0.00028261 3.23473113 0.0001227 4.85209656 -0.0004425 C9.21082172 -0.00072761 13.56951896 0.00512251 17.92823768 0.01213145 C22.49527324 0.01841299 27.06230954 0.01897257 31.62934875 0.02015686 C40.26340137 0.02325608 48.89744122 0.03145037 57.53148824 0.04150635 C67.36710463 0.05271137 77.20272165 0.05818897 87.03834283 0.06320179 C107.25774673 0.07363425 127.47713916 0.09120625 147.6965332 0.11352539 C147.6965332 0.44352539 147.6965332 0.77352539 147.6965332 1.11352539 C130.79674984 1.24475472 113.89696049 1.37518031 96.99716377 1.50467682 C89.14841549 1.56483697 81.29966931 1.62524962 73.45092773 1.6862793 C66.60144783 1.73953832 59.75196431 1.79230057 52.90247619 1.84449244 C49.28349329 1.87208509 45.66451254 1.89990869 42.04553604 1.92832947 C37.98275552 1.9602233 33.91996745 1.99102825 29.85717773 2.02172852 C27.97243083 2.03667233 27.97243083 2.03667233 26.04960823 2.05191803 C20.70786879 2.09139229 15.36741048 2.12090128 10.02557373 2.08959961 C9.19287397 2.08524651 8.36017422 2.0808934 7.50224113 2.07640839 C5.39873821 2.06221173 3.29529118 2.04026475 1.19186401 2.01745605 C-3.11346669 2.13578828 -7.15041721 2.78572202 -11.3347168 3.77368164 C-13.3034668 4.11352539 -13.3034668 4.11352539 -15.3034668 3.11352539 C-16.2934668 3.44352539 -17.2834668 3.77352539 -18.3034668 4.11352539 C-19.2934668 3.78352539 -20.2834668 3.45352539 -21.3034668 3.11352539 C-23.47132941 3.3893647 -23.47132941 3.3893647 -25.7409668 3.98852539 C-26.50280273 4.17157227 -27.26463867 4.35461914 -28.04956055 4.54321289 C-29.43308155 4.89328926 -30.8160348 5.24563055 -32.19799805 5.60180664 C-33.87652767 6.00976096 -35.56528435 6.37556951 -37.2565918 6.72680664 C-43.90979206 8.13785267 -49.32677336 9.91172534 -55.3034668 13.11352539 C-56.96847123 13.45506476 -58.63525357 13.78802037 -60.3034668 14.11352539 C-62.60249582 15.15099336 -64.86623227 16.23865882 -67.11987305 17.37133789 C-69.63526643 18.22630165 -70.83903283 17.99647452 -73.3034668 17.11352539 C-69.58942864 13.39948723 -63.98635228 12.211266 -59.10424805 10.42773438 C-57.09870799 9.69260844 -55.09953672 8.94187698 -53.1003418 8.18969727 C-35.51489502 1.66728658 -18.6581066 -0.04602529 0 0 Z " fill="#F7E55E" transform="translate(412.303466796875,231.886474609375)"/>
        <path d="M0 0 C1.32 0.33 2.64 0.66 4 1 C3.67 1.9075 3.34 2.815 3 3.75 C1.80394277 7.07045807 1.80394277 7.07045807 2 11 C1.01 11.495 1.01 11.495 0 12 C-0.37238718 14.32741989 -0.69836866 16.66235715 -1 19 C-1.5259375 20.8253125 -1.5259375 20.8253125 -2.0625 22.6875 C-3.18154831 26.06770239 -3.18154831 26.06770239 -3 30 C-3.66 30 -4.32 30 -5 30 C-4.814375 30.804375 -4.62875 31.60875 -4.4375 32.4375 C-4.293125 33.283125 -4.14875 34.12875 -4 35 C-4.495 35.495 -4.495 35.495 -5 36 C-5.37562002 38.4591373 -5.70628486 40.90595713 -6 43.375 C-6.87058824 50.61176471 -6.87058824 50.61176471 -8 54 C-8.06919903 55.37602281 -8.08460521 56.75522816 -8.0625 58.1328125 C-8.05476562 58.93976563 -8.04703125 59.74671875 -8.0390625 60.578125 C-8.01338022 62.25260972 -7.98734875 63.92708912 -7.9609375 65.6015625 C-7.95320312 66.41625 -7.94546875 67.2309375 -7.9375 68.0703125 C-7.92589844 68.80008301 -7.91429687 69.52985352 -7.90234375 70.28173828 C-7.98649921 72.62420547 -8.2041904 74.86829452 -8.48413086 77.19262695 C-9.05274763 82.07971889 -9.21978597 86.9313753 -9.31640625 91.84765625 C-9.33718735 92.74495956 -9.35796844 93.64226288 -9.37937927 94.5667572 C-9.44412226 97.39860288 -9.50340518 100.23053141 -9.5625 103.0625 C-9.60575702 104.99675294 -9.64937344 106.93099788 -9.69335938 108.86523438 C-9.79972503 113.57674067 -9.90119819 118.28832926 -10 123 C-10.33 123 -10.66 123 -11 123 C-11.07072406 114.99139533 -11.12341215 106.98292935 -11.15543652 98.97408581 C-11.17083655 95.25189577 -11.19157854 91.52992509 -11.22631836 87.80786133 C-11.44143966 64.08733985 -11.13017169 40.26351702 -4.9375 17.1875 C-4.68162109 16.16720703 -4.42574219 15.14691406 -4.16210938 14.09570312 C-2.95131346 9.33033411 -1.6454476 4.63717052 0 0 Z " fill="#F2E355" transform="translate(235,365)"/>
        <path d="M0 0 C2.05078125 0.03255208 4.1015625 0.06510417 6.15234375 0.09765625 C6.15234375 0.75765625 6.15234375 1.41765625 6.15234375 2.09765625 C6.81234375 1.76765625 7.47234375 1.43765625 8.15234375 1.09765625 C10.0148949 1.00404134 11.88085651 0.97574552 13.74575806 0.97740173 C14.93490311 0.97602707 16.12404816 0.9746524 17.34922791 0.97323608 C18.66049149 0.97683136 19.97175507 0.98042664 21.32275391 0.98413086 C22.71219379 0.98441282 24.10163382 0.98425483 25.49107361 0.98368835 C29.26977326 0.98340071 33.04844136 0.98929212 36.82713366 0.99626231 C40.77361931 1.00250133 44.72010564 1.00310008 48.66659546 1.00428772 C56.14284655 1.00739941 63.61908307 1.01561063 71.09532773 1.02563721 C79.60548831 1.03680336 88.11564956 1.04231006 96.62581563 1.04733264 C114.13466677 1.05779337 131.64350372 1.0753897 149.15234375 1.09765625 C149.15234375 1.42765625 149.15234375 1.75765625 149.15234375 2.09765625 C148.15044526 2.10262147 148.15044526 2.10262147 147.12830639 2.107687 C130.79000864 2.18931279 114.45180725 2.28153018 98.11363506 2.38518333 C90.21225051 2.43506262 82.31087506 2.48150573 74.40942383 2.51953125 C67.5133649 2.55272742 60.61738229 2.59270514 53.72140819 2.64044631 C50.07836718 2.66544049 46.435375 2.68729742 42.79227257 2.70100021 C23.61068508 2.77606835 4.72849305 2.85721348 -13.96484375 7.609375 C-16.94955888 8.11491618 -18.95048709 7.8941105 -21.84765625 7.09765625 C-16.7047275 3.66903708 -10.65475558 2.79029865 -4.66796875 1.5625 C-2.54940146 1.02149247 -2.19594885 0.11606495 0 0 Z " fill="#FEF95C" transform="translate(394.84765625,271.90234375)"/>
        <path d="M0 0 C43.56 0 87.12 0 132 0 C142 28 142 28 141 32 C139 29 139 29 139 25 C138.34 25 137.68 25 137 25 C136.32873871 22.5636811 135.66283646 20.12611117 135 17.6875 C134.80921875 16.99720703 134.6184375 16.30691406 134.421875 15.59570312 C133.62283816 12.64212051 133 10.07440781 133 7 C131.02 6.01 131.02 6.01 129 5 C129.33 4.01 129.66 3.02 130 2 C129.31292969 2.08378906 128.62585938 2.16757813 127.91796875 2.25390625 C127.01691406 2.35574219 126.11585938 2.45757812 125.1875 2.5625 C124.29417969 2.66691406 123.40085937 2.77132812 122.48046875 2.87890625 C120 3 120 3 117 2 C115.40146874 1.89907891 113.79913276 1.85379842 112.19746399 1.84178162 C111.20888397 1.8319928 110.22030396 1.82220398 109.20176697 1.81211853 C108.11851639 1.80636307 107.03526581 1.8006076 105.91918945 1.79467773 C104.77758362 1.78477814 103.63597778 1.77487854 102.45977783 1.76467896 C98.67763357 1.733033 94.89547673 1.70829419 91.11328125 1.68359375 C88.49439666 1.66302691 85.87551541 1.64203051 83.25663757 1.62062073 C77.06251013 1.57070873 70.86835698 1.52576437 64.67417926 1.48259836 C57.62221819 1.43321322 50.57030357 1.37829983 43.51838744 1.32291877 C29.01230228 1.20912166 14.50617089 1.10227767 0 1 C0 0.67 0 0.34 0 0 Z " fill="#D3AF41" transform="translate(443,231)"/>
        <path d="M0 0 C2 2 2 2 3 8 C-46.5 8 -96 8 -147 8 C-147 7.67 -147 7.34 -147 7 C-138.88006019 5.83665117 -130.86093399 5.96216728 -122.68359375 6.12109375 C-121.21672878 6.14544242 -119.74985531 6.16928346 -118.28297424 6.19264221 C-114.45085851 6.25501154 -110.61889634 6.32420762 -106.78692627 6.39489746 C-102.86518251 6.4660111 -98.9433312 6.53056914 -95.02148438 6.59570312 C-87.34753717 6.72410619 -79.67374048 6.85973211 -72 7 C-71.67 6.34 -71.34 5.68 -71 5 C-71 5.66 -71 6.32 -71 7 C-64.73 7 -58.46 7 -52 7 C-51.67 6.34 -51.34 5.68 -51 5 C-51 5.66 -51 6.32 -51 7 C-46.74974382 6.86109398 -42.49987158 6.71268006 -38.25 6.5625 C-37.0434375 6.52318359 -35.836875 6.48386719 -34.59375 6.44335938 C-32.85351562 6.38051758 -32.85351562 6.38051758 -31.078125 6.31640625 C-30.00981445 6.27974854 -28.94150391 6.24309082 -27.84082031 6.20532227 C-25.4100876 6.02963937 -23.34218284 5.61180337 -21 5 C-19.046875 5.40234375 -19.046875 5.40234375 -17 6 C-15.41974995 6.21192095 -13.83601539 6.39923371 -12.25 6.5625 C-11.05117188 6.68818359 -11.05117188 6.68818359 -9.828125 6.81640625 C-9.22484375 6.87699219 -8.6215625 6.93757812 -8 7 C-7.67 6.34 -7.34 5.68 -7 5 C-5.02 5 -3.04 5 -1 5 C-0.67 3.35 -0.34 1.7 0 0 Z " fill="#CB9D28" transform="translate(561,594)"/>
        <path d="M0 0 C2.17094477 2.17094477 2.4863 3.15752856 3.1875 6.0625 C3.36667969 6.77535156 3.54585937 7.48820312 3.73046875 8.22265625 C3.81941406 8.80917969 3.90835938 9.39570313 4 10 C2.16642556 11.83357444 -0.39635695 11.11999967 -2.8359375 11.12442017 C-3.67390869 11.12082489 -4.51187988 11.11722961 -5.37524414 11.11352539 C-6.69219521 11.11374443 -6.69219521 11.11374443 -8.03575134 11.1139679 C-10.95224435 11.11326844 -13.86867433 11.10547455 -16.78515625 11.09765625 C-18.80154892 11.09579218 -20.81794204 11.09436823 -22.83433533 11.09336853 C-28.15265138 11.08954244 -33.4709403 11.07971139 -38.78924561 11.06866455 C-44.21170688 11.05845238 -49.63417252 11.05387133 -55.05664062 11.04882812 C-65.70443903 11.0380892 -76.35221726 11.02101169 -87 11 C-84.42883776 8.42883776 -82.73386931 8.76427 -79.23002625 8.75115967 C-78.0205407 8.7619455 -78.0205407 8.7619455 -76.78662109 8.77294922 C-75.9377684 8.77265717 -75.08891571 8.77236511 -74.21434021 8.77206421 C-71.40060301 8.77346072 -68.58712861 8.78903697 -65.7734375 8.8046875 C-63.82573593 8.80841649 -61.87803248 8.811264 -59.93032837 8.81326294 C-54.79775842 8.82090839 -49.66530121 8.84056468 -44.53277588 8.8626709 C-39.29790777 8.88310972 -34.06302149 8.89226045 -28.828125 8.90234375 C-18.55203373 8.92380973 -8.27602623 8.95795664 2 9 C1.01 4.545 1.01 4.545 0 0 Z " fill="#010107" transform="translate(529,355)"/>
        <path d="M0 0 C0.66 0.66 1.32 1.32 2 2 C0.73046875 3.46484375 -0.5390625 4.9296875 -1.80859375 6.39453125 C-3.20871231 8.10712971 -3.20871231 8.10712971 -4 11 C-5.18095375 12.14721221 -6.36242739 13.29389541 -7.546875 14.4375 C-12.65344109 19.92843128 -16.12237697 26.86550664 -19.62109375 33.43359375 C-20.76098161 35.55514141 -21.95030564 37.6223733 -23.1875 39.6875 C-24.86614877 42.75537533 -26.05627122 45.68589544 -27.21875 48.96484375 C-28.28671493 51.7468924 -29.65652632 54.33786633 -31.02734375 56.98046875 C-32.02711296 59.05629479 -32.80331596 61.1382923 -33.5625 63.3125 C-34.85648382 66.63184979 -35.49969276 67.74903088 -38 70 C-37.44619461 64.20042688 -35.80878109 59.45392823 -33.5 54.125 C-33.14397705 53.29637451 -32.7879541 52.46774902 -32.42114258 51.61401367 C-24.12815075 32.64079047 -13.48723441 15.7184559 0 0 Z " fill="#F1DF6C" transform="translate(274,297)"/>
        <path d="M0 0 C-3.74525799 3.74525799 -7.98270909 3.68909949 -13 4 C-13 4.66 -13 5.32 -13 6 C-15.31 6.33 -17.62 6.66 -20 7 C-20 7.66 -20 8.32 -20 9 C-21.093125 9.433125 -22.18625 9.86625 -23.3125 10.3125 C-25.46229471 11.22648458 -26.83922416 11.83922416 -28.5 13.5 C-30.88806592 15.88806592 -33.90108569 16.74956089 -37 18 C-38.34013497 18.65288627 -39.67741528 19.31225595 -41 20 C-41 20.66 -41 21.32 -41 22 C-43.05776069 23.75290726 -45.10526848 25.05526595 -47.5 26.3125 C-50.62495113 28.42184201 -51.97667353 30.8385524 -54 34 C-55.64429829 35.68873879 -57.31384218 37.35305515 -59 39 C-60.28437711 40.38338118 -61.55461463 41.77998714 -62.8125 43.1875 C-63.41707031 43.86167969 -64.02164062 44.53585937 -64.64453125 45.23046875 C-66.20270013 46.89311648 -66.20270013 46.89311648 -66 49 C-67.98 49.495 -67.98 49.495 -70 50 C-60.09583563 27.71563018 -35.22100069 11.42337065 -13.4140625 2.5390625 C-8.7779716 0.92501604 -4.93927542 -0.20432254 0 0 Z " fill="#EFD859" transform="translate(404,325)"/>
        <path d="M0 0 C0.703125 1.73046875 0.703125 1.73046875 1 4 C-0.265625 5.98828125 -0.265625 5.98828125 -2.25 8.3125 C-16.18193721 26.59511234 -22.8833326 49.90803604 -28 72 C-28.66 72 -29.32 72 -30 72 C-30.33 71.01 -30.66 70.02 -31 69 C-30.505 68.01 -30.505 68.01 -30 67 C-29.34 67 -28.68 67 -28 67 C-27.95101563 66.13117188 -27.90203125 65.26234375 -27.8515625 64.3671875 C-27.77679688 63.21476562 -27.70203125 62.06234375 -27.625 60.875 C-27.52058594 59.16957031 -27.52058594 59.16957031 -27.4140625 57.4296875 C-27.00363555 54.03011333 -26.18797992 51.2011978 -25 48 C-24.67 47.01 -24.34 46.02 -24 45 C-21.02268994 36.48015425 -17.79209582 28.2027154 -13.75 20.125 C-13.4089624 19.44155518 -13.0679248 18.75811035 -12.71655273 18.05395508 C-11.34206749 15.36545785 -10.14841893 13.14841893 -8 11 C-6.70998449 9.17247803 -5.46306721 7.31982602 -4.21875 5.4609375 C-3.8165625 4.97882813 -3.414375 4.49671875 -3 4 C-2.34 4 -1.68 4 -1 4 C-0.67 2.68 -0.34 1.36 0 0 Z " fill="#EDD55A" transform="translate(298,331)"/>
        <path d="M0 0 C0.33 0 0.66 0 1 0 C0.93148331 1.13431961 0.86296661 2.26863922 0.79237366 3.43733215 C0.09654985 15.44456596 -0.20286644 27.42386676 -0.31640625 39.44921875 C-0.3370536 41.32778803 -0.35805159 43.20635348 -0.37937927 45.08491516 C-0.43379888 49.9590438 -0.48355105 54.83320853 -0.53222656 59.70739746 C-0.58303809 64.70926004 -0.63840829 69.71107211 -0.69335938 74.71289062 C-0.79995639 84.47521698 -0.90160729 94.23758774 -1 104 C-1.33 104 -1.66 104 -2 104 C-2.01030746 103.27575836 -2.02061493 102.55151672 -2.03123474 101.80532837 C-2.13025558 94.89428883 -2.23289304 87.98331085 -2.33933926 81.07238197 C-2.39390994 77.52158676 -2.44720462 73.97078306 -2.49731445 70.41992188 C-2.55546657 66.31373678 -2.6177333 62.20763111 -2.68359375 58.1015625 C-2.69941561 57.10232128 -2.69941561 57.10232128 -2.7155571 56.08289337 C-2.85780849 47.42075063 -3.09958511 38.78091508 -3.760849 30.14126587 C-3.99689677 26.84464568 -3.91737739 24.17128269 -3 21 C-3.185625 20.21625 -3.37125 19.4325 -3.5625 18.625 C-4.12581675 15.24509948 -3.11384048 13.21048139 -2 10 C-1.83201531 6.74955291 -1.83201531 6.74955291 -2 4 C-1.34 4 -0.68 4 0 4 C0 2.68 0 1.36 0 0 Z " fill="#F9E14B" transform="translate(268,405)"/>
        <path d="M0 0 C0.9667717 -0.00014603 1.9335434 -0.00029205 2.92961121 -0.0004425 C6.100233 0.00024981 9.27079481 0.00801012 12.44140625 0.01586914 C14.6495765 0.01773574 16.85774716 0.0191585 19.06591797 0.02015686 C24.85924435 0.02396296 30.6525454 0.03377688 36.44586182 0.04486084 C42.36494606 0.05511605 48.28403442 0.05966327 54.203125 0.06469727 C65.80339651 0.07540094 77.40364927 0.09245434 89.00390625 0.11352539 C89.00390625 0.44352539 89.00390625 0.77352539 89.00390625 1.11352539 C87.36804817 1.12565567 87.36804817 1.12565567 85.69914246 1.13803101 C75.3864509 1.21575062 65.07388709 1.30355365 54.76136303 1.40105247 C49.46048247 1.45084987 44.15962026 1.49718056 38.85864258 1.53540039 C33.73624726 1.57246334 28.61401189 1.6188785 23.49175453 1.6715889 C21.5443231 1.6900218 19.59685753 1.70517003 17.64937401 1.71686935 C3.21949008 1.80453519 3.21949008 1.80453519 -10.99609375 4.11352539 C-15.14585681 5.10571485 -17.10653864 5.00273787 -20.99609375 3.11352539 C-14.99977265 -0.88402201 -7.00269534 -0.02806881 0 0 Z " fill="#FCE94D" transform="translate(425.99609375,321.886474609375)"/>
        <path d="M0 0 C0.33 0.66 0.66 1.32 1 2 C35.65 2 70.3 2 106 2 C106 2.33 106 2.66 106 3 C49.57 3.495 49.57 3.495 -8 4 C-5.33333333 2.66666667 -2.66666667 1.33333333 0 0 Z " fill="#FEE545" transform="translate(425,361)"/>
        <path d="M0 0 C6.93 0 13.86 0 21 0 C22.45263584 3.91113902 23.89826852 7.82355635 25.32739258 11.74316406 C25.81536517 13.07532437 26.30719783 14.40607739 26.80297852 15.73535156 C27.51561539 17.64810611 28.21414334 19.56551883 28.91015625 21.484375 C29.54642944 23.21252441 29.54642944 23.21252441 30.19555664 24.97558594 C30.97793121 27.91702938 31.10066762 29.21999397 30 32 C28 29 28 29 28 25 C27.34 25 26.68 25 26 25 C25.32873871 22.5636811 24.66283646 20.12611117 24 17.6875 C23.80921875 16.99720703 23.6184375 16.30691406 23.421875 15.59570312 C22.62283816 12.64212051 22 10.07440781 22 7 C20.68 6.34 19.36 5.68 18 5 C18.33 4.01 18.66 3.02 19 2 C18.07380859 2.14308594 18.07380859 2.14308594 17.12890625 2.2890625 C10.95503012 3.09721067 5.97159581 2.74532148 0 1 C0 0.67 0 0.34 0 0 Z " fill="#F1D043" transform="translate(554,231)"/>
        <path d="M0 0 C1.32 0.33 2.64 0.66 4 1 C3.67 1.9075 3.34 2.815 3 3.75 C1.80394277 7.07045807 1.80394277 7.07045807 2 11 C1.01 11.495 1.01 11.495 0 12 C-0.37238718 14.32741989 -0.69836866 16.66235715 -1 19 C-1.350625 20.216875 -1.70125 21.43375 -2.0625 22.6875 C-3.18154831 26.06770239 -3.18154831 26.06770239 -3 30 C-3.66 30 -4.32 30 -5 30 C-4.67 31.65 -4.34 33.3 -4 35 C-4.99 35.495 -4.99 35.495 -6 36 C-7.44016421 28.0395198 -6.36018449 21.76643589 -4.125 14.0625 C-3.84269531 13.03576172 -3.56039062 12.00902344 -3.26953125 10.95117188 C-2.25154934 7.2724458 -1.20712266 3.62136797 0 0 Z M-7 36 C-6.67 36 -6.34 36 -6 36 C-6 38.31 -6 40.62 -6 43 C-6.33 43 -6.66 43 -7 43 C-7 40.69 -7 38.38 -7 36 Z " fill="#E7CE5A" transform="translate(235,365)"/>
        <path d="M0 0 C2 1 2 1 2.77200317 2.71232605 C3.01627045 3.45589859 3.26053772 4.19947113 3.51220703 4.96557617 C3.7923465 5.80702682 4.07248596 6.64847748 4.3611145 7.51542664 C4.65702484 8.43201553 4.95293518 9.34860443 5.2578125 10.29296875 C5.56572723 11.23175369 5.87364197 12.17053864 6.19088745 13.13777161 C6.84180922 15.12976164 7.4888433 17.12302553 8.13232422 19.11743164 C9.11648441 22.16116368 10.11788736 25.1988284 11.12109375 28.23632812 C11.75105648 30.1715314 12.37999585 32.10706818 13.0078125 34.04296875 C13.4577507 35.40267036 13.4577507 35.40267036 13.91677856 36.7898407 C15.3674628 41.33105161 16.38008909 45.16750959 16 50 C12.74226053 43.73511641 10.37740919 37.39373692 8.4375 30.625 C8.22134033 29.8812915 8.00518066 29.13758301 7.7824707 28.37133789 C6.32087289 23.28270923 5.03870296 18.19351478 4 13 C3.34 13 2.68 13 2 13 C0.33700479 8.42676316 0 4.8553191 0 0 Z " fill="#E6C53B" transform="translate(585,264)"/>
        <path d="M0 0 C0.66 0.33 1.32 0.66 2 1 C0.46305719 5.12645858 -2.163774 6.80298296 -5.6875 9.3125 C-13.32205904 14.9265934 -19.81569234 21.54680573 -26.390625 28.34228516 C-28.56936792 30.58646969 -30.78203452 32.79463659 -33 35 C-32.49259538 30.60249328 -29.91706686 28.13051078 -27 25 C-26.34 25 -25.68 25 -25 25 C-24.67 24.01 -24.34 23.02 -24 22 C-23.34 22 -22.68 22 -22 22 C-22 21.34 -22 20.68 -22 20 C-21.34 20 -20.68 20 -20 20 C-20 19.01 -20 18.02 -20 17 C-19.01 16.67 -18.02 16.34 -17 16 C-14.26185953 13.46221127 -12.07404293 11.1110644 -10 8 C-7.07132961 5.99617289 -4.49664792 4.64752739 -1 4 C-0.67 2.68 -0.34 1.36 0 0 Z " fill="#F4E268" transform="translate(332,298)"/>
        <path d="M0 0 C0.66 0.99 1.32 1.98 2 3 C1.43261719 5.43603516 1.43261719 5.43603516 0.296875 8.2890625 C-0.10660156 9.31257812 -0.51007812 10.33609375 -0.92578125 11.390625 C-1.36277344 12.45796875 -1.79976562 13.5253125 -2.25 14.625 C-2.67152344 15.70007813 -3.09304688 16.77515625 -3.52734375 17.8828125 C-6.72029154 25.86014577 -6.72029154 25.86014577 -9 27 C-9.67057887 25.2097939 -10.3363469 23.41778511 -11 21.625 C-11.37125 20.62726562 -11.7425 19.62953125 -12.125 18.6015625 C-13 16 -13 16 -13 14 C-11.68 14.33 -10.36 14.66 -9 15 C-9 15.66 -9 16.32 -9 17 C-5.6433715 14.76224766 -5.42003986 14.06679952 -4.3125 10.375 C-4.06113281 9.55773437 -3.80976562 8.74046875 -3.55078125 7.8984375 C-3.36902344 7.27195312 -3.18726563 6.64546875 -3 6 C-2.34 6 -1.68 6 -1 6 C-0.67 4.02 -0.34 2.04 0 0 Z " fill="#D8A826" transform="translate(663,577)"/>
        <path d="M0 0 C2.05078125 0.03255208 4.1015625 0.06510417 6.15234375 0.09765625 C6.15234375 0.75765625 6.15234375 1.41765625 6.15234375 2.09765625 C6.87421875 1.91203125 7.59609375 1.72640625 8.33984375 1.53515625 C11.28061348 1.07770318 13.29337433 1.36249268 16.15234375 2.09765625 C16.15234375 2.42765625 16.15234375 2.75765625 16.15234375 3.09765625 C14.94320312 3.20722656 13.7340625 3.31679688 12.48828125 3.4296875 C3.47921508 4.28923255 -5.17887564 5.37583371 -13.96484375 7.609375 C-16.94955888 8.11491618 -18.95048709 7.8941105 -21.84765625 7.09765625 C-16.7047275 3.66903708 -10.65475558 2.79029865 -4.66796875 1.5625 C-2.54940146 1.02149247 -2.19594885 0.11606495 0 0 Z " fill="#EDD65F" transform="translate(394.84765625,271.90234375)"/>
        <path d="M0 0 C0.66 0 1.32 0 2 0 C2 1.32 2 2.64 2 4 C1.01 4 0.02 4 -1 4 C-2.52406315 9.34438145 -3.98564709 14.65780972 -5 20.125 C-5.90546623 24.91322822 -7.34189661 29.42363465 -9 34 C-9.66 33.67 -10.32 33.34 -11 33 C-11.51883876 21.09722837 -6.03978051 9.98327981 0 0 Z " fill="#E9CE52" transform="translate(333,376)"/>
        <path d="M0 0 C0.33 0.66 0.66 1.32 1 2 C0.67 2.99 0.34 3.98 0 5 C10.89 5 21.78 5 33 5 C33 5.99 33 6.98 33 8 C21.12 8 9.24 8 -3 8 C-1 1 -1 1 0 0 Z " fill="#020207" transform="translate(487,782)"/>
        <path d="M0 0 C0.99 0.33 1.98 0.66 3 1 C0.08089124 4.61413466 -2.83962425 7.98268349 -6.4375 10.9375 C-9.80445504 13.70853379 -12.55032839 16.81149522 -15.32421875 20.16796875 C-17.08131705 22.08889906 -18.82616694 23.56996318 -21 25 C-21.66 25 -22.32 25 -23 25 C-21.43717018 21.23396131 -19.0936525 18.86360849 -16.2109375 16.015625 C-15.74765045 15.55516785 -15.2843634 15.09471069 -14.80703735 14.62030029 C-13.33434102 13.15874922 -11.85482597 11.70432832 -10.375 10.25 C-9.37193678 9.25697389 -8.36932743 8.26348911 -7.3671875 7.26953125 C-4.91669165 4.84102059 -2.4600333 2.41885325 0 0 Z " fill="#CEA023" transform="translate(716,621)"/>
        <path d="M0 0 C1.24566814 2.49133628 0.87266789 3.29048449 0.1875 5.9375 C0.01605469 6.62714844 -0.15539062 7.31679688 -0.33203125 8.02734375 C-1 10 -1 10 -3 13 C-3.27441372 15.1270431 -3.27441372 15.1270431 -3.1953125 17.44921875 C-3.18886719 18.29677734 -3.18242188 19.14433594 -3.17578125 20.01757812 C-3.15902344 20.89865234 -3.14226563 21.77972656 -3.125 22.6875 C-3.11597656 23.58017578 -3.10695313 24.47285156 -3.09765625 25.39257812 C-3.07409748 27.59532314 -3.04120329 29.79752588 -3 32 C-2.34 32.33 -1.68 32.66 -1 33 C-1.66 33.99 -2.32 34.98 -3 36 C-6.99545086 25.25033458 -7.3204823 15.99721648 -3.0703125 5.27734375 C-2 3 -2 3 0 0 Z " fill="#E5BE34" transform="translate(725,266)"/>
        <path d="M0 0 C0.33 0.66 0.66 1.32 1 2 C0.319375 2.680625 -0.36125 3.36125 -1.0625 4.0625 C-1.73925781 4.74119141 -1.73925781 4.74119141 -2.4296875 5.43359375 C-3.5548028 6.55591026 -4.68569251 7.67244952 -5.8203125 8.78515625 C-6.74457031 9.69587891 -6.74457031 9.69587891 -7.6875 10.625 C-8.26886719 11.19476562 -8.85023438 11.76453125 -9.44921875 12.3515625 C-11.20251898 14.12382974 -11.20251898 14.12382974 -13 17 C-13.66 17 -14.32 17 -15 17 C-15.103125 17.598125 -15.20625 18.19625 -15.3125 18.8125 C-16.08876455 21.28243264 -17.07088921 22.32251235 -19 24 C-17.60054528 14.15133743 -9.50928944 6.85755164 -2 1 C-1.34 0.67 -0.68 0.34 0 0 Z " fill="#E5C344" transform="translate(188,738)"/>
        <path d="M0 0 C0.66 0.66 1.32 1.32 2 2 C-2.35592732 4.32388182 -6.1419286 6.05208363 -11 7 C-13.29902902 8.03746797 -15.56276548 9.12513343 -17.81640625 10.2578125 C-20.33179963 11.11277626 -21.53556603 10.88294913 -24 10 C-21.70644913 7.70644913 -20.03241557 7.13798716 -16.9921875 6.0546875 C-16.00605469 5.70019531 -15.01992188 5.34570312 -14.00390625 4.98046875 C-12.97136719 4.61566406 -11.93882812 4.25085938 -10.875 3.875 C-9.31458984 3.31619141 -9.31458984 3.31619141 -7.72265625 2.74609375 C-5.15019434 1.8256716 -2.57597162 0.91054364 0 0 Z " fill="#F2DF6B" transform="translate(363,239)"/>
        <path d="M0 0 C-3.42508228 7.34632133 -9.59026111 13.16194549 -16 18 C-16.99 18.33 -17.98 18.66 -19 19 C-17.61314777 15.8804428 -15.99810509 13.74144201 -13.59375 11.328125 C-12.60181641 10.33232422 -12.60181641 10.33232422 -11.58984375 9.31640625 C-10.55537109 8.29353516 -10.55537109 8.29353516 -9.5 7.25 C-8.81035156 6.55261719 -8.12070312 5.85523438 -7.41015625 5.13671875 C-6.74886719 4.47800781 -6.08757812 3.81929688 -5.40625 3.140625 C-4.80103516 2.53766602 -4.19582031 1.93470703 -3.57226562 1.31347656 C-2 0 -2 0 0 0 Z " fill="#F9E97D" transform="translate(294,279)"/>
        <path d="M0 0 C2.01014657 6.03043972 -0.83061212 11.81635948 -2.76953125 17.609375 C-4.17343852 20.33696628 -5.16300712 20.97701724 -8 22 C-5.92957946 14.39162534 -3.14169523 7.2271408 0 0 Z " fill="#CFA42A" transform="translate(727,414)"/>
        <path d="M0 0 C5.02669592 4.69158286 5.21358278 10.51205797 6 17 C6.99 17.33 7.98 17.66 9 18 C9.33 20.64 9.66 23.28 10 26 C9.01 25.67 8.02 25.34 7 25 C6.0168457 22.91455078 6.0168457 22.91455078 5.17578125 20.1953125 C4.86962891 19.21949219 4.56347656 18.24367188 4.24804688 17.23828125 C3.93931641 16.21089844 3.63058594 15.18351562 3.3125 14.125 C2.99216797 13.10535156 2.67183594 12.08570313 2.34179688 11.03515625 C0 3.45552372 0 3.45552372 0 0 Z " fill="#F2D341" transform="translate(549,287)"/>
        <path d="M0 0 C0.33 0 0.66 0 1 0 C1.66408409 11.68076488 2.15956375 23.29865851 2 35 C0.50463867 33.95581055 0.50463867 33.95581055 -1 32 C-1.19181219 29.47255912 -1.21130883 27.21883422 -1.07421875 24.70703125 C-1.04777786 24.00100266 -1.02133698 23.29497406 -0.99409485 22.56755066 C-0.90639949 20.31499992 -0.79723333 18.06407426 -0.6875 15.8125 C-0.62423374 14.28456324 -0.56236792 12.75656779 -0.50195312 11.22851562 C-0.35087087 7.48480269 -0.18052823 3.7424039 0 0 Z " fill="#010107" transform="translate(428,731)"/>
        <path d="M0 0 C6.91801349 2.96699285 10.57170462 10.19469574 13.38671875 16.87890625 C14.2382113 19.82387732 13.89184809 22.1014937 13 25 C11 22 11 22 10.8125 19 C10.00751462 11.87663882 4.22613859 5.53546374 0 0 Z " fill="#CEA024" transform="translate(780,585)"/>
        <path d="M0 0 C0.33 0.66 0.66 1.32 1 2 C10.57 2 20.14 2 30 2 C30 2.33 30 2.66 30 3 C11.19 3.495 11.19 3.495 -8 4 C-5.33333333 2.66666667 -2.66666667 1.33333333 0 0 Z " fill="#FEF04E" transform="translate(425,361)"/>
        <path d="M0 0 C2.16078773 3.24118159 3.34884727 6.28209585 4.6875 9.9375 C5.14511719 11.16339844 5.60273437 12.38929688 6.07421875 13.65234375 C6.93811367 16.77621693 7.21062031 18.07249999 6 21 C4 18 4 18 4 14 C3.34 14 2.68 14 2 14 C1.47061343 12.04396149 0.95173199 10.08507711 0.4375 8.125 C0.14746094 7.03445312 -0.14257812 5.94390625 -0.44140625 4.8203125 C-1 2 -1 2 0 0 Z " fill="#E5C33F" transform="translate(578,242)"/>
        <path d="M0 0 C0.734375 1.66015625 0.734375 1.66015625 1 4 C-0.546875 6.62109375 -0.546875 6.62109375 -2.75 9.4375 C-5.40099923 12.86568066 -7.84251493 16.23805609 -10 20 C-11.35303489 17.29393021 -10.7884698 15.8671629 -10 13 C-9.34 12.34 -8.68 11.68 -8 11 C-6.70998449 9.17247803 -5.46306721 7.31982602 -4.21875 5.4609375 C-3.8165625 4.97882813 -3.414375 4.49671875 -3 4 C-2.34 4 -1.68 4 -1 4 C-0.67 2.68 -0.34 1.36 0 0 Z " fill="#F0DC62" transform="translate(298,331)"/>
        <path d="M0 0 C0.33 0 0.66 0 1 0 C0.91932999 3.12607441 0.8064771 6.25016751 0.6875 9.375 C0.66494141 10.26445312 0.64238281 11.15390625 0.61914062 12.0703125 C0.58369141 12.92109375 0.54824219 13.771875 0.51171875 14.6484375 C0.48553467 15.43395996 0.45935059 16.21948242 0.43237305 17.02880859 C0 19 0 19 -3 21 C-4.28571649 16.62856395 -3.46688675 14.22808533 -2 10 C-1.83201531 6.74955291 -1.83201531 6.74955291 -2 4 C-1.34 4 -0.68 4 0 4 C0 2.68 0 1.36 0 0 Z " fill="#DDBC4A" transform="translate(268,405)"/>
        <path d="M0 0 C2.25 0.25 2.25 0.25 4 1 C1.07284059 4.24623365 -1.62910463 6.00516159 -5.625 7.75 C-7.06746094 8.39195312 -7.06746094 8.39195312 -8.5390625 9.046875 C-11 10 -11 10 -13 10 C-12.4375 8.125 -12.4375 8.125 -11 6 C-8.67328146 5.31060191 -6.33932406 4.64533078 -4 4 C-3.278125 3.278125 -2.55625 2.55625 -1.8125 1.8125 C-1.214375 1.214375 -0.61625 0.61625 0 0 Z " fill="#C39721" transform="translate(778,641)"/>
        <path d="M0 0 C1.16719913 3.50159739 0.50023819 5.38088768 -0.453125 8.859375 C-1.2264947 11.88656498 -1.61271274 14.90170189 -2 18 C-3.5625 16.5 -3.5625 16.5 -5 14 C-4.77597159 9.29540332 -4.18037325 5.23248925 -2 1 C-1.34 0.67 -0.68 0.34 0 0 Z " fill="#BC9424" transform="translate(722,597)"/>
        <path d="M0 0 C0.33 0 0.66 0 1 0 C1.02727678 2.97923003 1.04697128 5.95820379 1.0625 8.9375 C1.07087891 9.76830078 1.07925781 10.59910156 1.08789062 11.45507812 C1.10966956 17.05226441 0.71159268 22.44733582 0 28 C-0.33 28 -0.66 28 -1 28 C-1.2260865 24.08414605 -1.42778506 20.16740577 -1.625 16.25 C-1.68945312 15.13882812 -1.75390625 14.02765625 -1.8203125 12.8828125 C-1.871875 11.81289063 -1.9234375 10.74296875 -1.9765625 9.640625 C-2.02893066 8.65610352 -2.08129883 7.67158203 -2.13525391 6.65722656 C-1.99441807 3.8903362 -1.42542979 2.34490497 0 0 Z " fill="#E3C34D" transform="translate(226,419)"/>
        <path d="M0 0 C1.2078975 3.6236925 0.69261378 4.29966438 -0.8125 7.6875 C-2.68325052 12.09573911 -3.96223395 16.33005276 -5 21 C-5.66 20.34 -6.32 19.68 -7 19 C-6.64638402 14.4029922 -5.58012426 10.31900631 -4 6 C-3.34 6 -2.68 6 -2 6 C-1.34 4.02 -0.68 2.04 0 0 Z " fill="#EDD24A" transform="translate(370,396)"/>
        <path d="M0 0 C0.71285156 0.144375 1.42570313 0.28875 2.16015625 0.4375 C11.61444933 2.40180433 11.61444933 2.40180433 21 1 C21 1.99 21 2.98 21 4 C18.41638482 4.05407567 15.83390745 4.093707 13.25 4.125 C12.52039063 4.14175781 11.79078125 4.15851562 11.0390625 4.17578125 C4.09996547 4.23886395 4.09996547 4.23886395 1 2 C0.67 1.34 0.34 0.68 0 0 Z " fill="#C39622" transform="translate(741,648)"/>
        <path d="M0 0 C0.33 1.32 0.66 2.64 1 4 C-0.93170681 5.34171264 -2.87056876 6.67312883 -4.8125 8 C-5.89144531 8.7425 -6.97039062 9.485 -8.08203125 10.25 C-11 12 -11 12 -14 12 C-8.25 7 -8.25 7 -6 7 C-5.67 5.68 -5.34 4.36 -5 3 C-3.35 2.67 -1.7 2.34 0 2 C0 1.34 0 0.68 0 0 Z " fill="#EDD24E" transform="translate(398,368)"/>
        <path d="M0 0 C1.32 0.33 2.64 0.66 4 1 C4 1.66 4 2.32 4 3 C5.32 2.34 6.64 1.68 8 1 C7.40138258 3.35171131 6.73075648 5.6859378 6 8 C5.01 8.495 5.01 8.495 4 9 C4 8.34 4 7.68 4 7 C3.34 7 2.68 7 2 7 C1.34 4.69 0.68 2.38 0 0 Z " fill="#C39825" transform="translate(650,591)"/>
        <path d="M0 0 C1 3 1 3 -0.3125 5.9375 C-0.869375 6.948125 -1.42625 7.95875 -2 9 C-3.40973199 11.6628271 -4.36757077 14.04866359 -5 17 C-5.66 16.01 -6.32 15.02 -7 14 C-6.171875 10.8984375 -6.171875 10.8984375 -4.75 7.375 C-4.29109375 6.20710938 -3.8321875 5.03921875 -3.359375 3.8359375 C-2 1 -2 1 0 0 Z " fill="#D0A52A" transform="translate(669,474)"/>
        <path d="M0 0 C0.33 0.99 0.66 1.98 1 3 C-0.1796875 5.19140625 -0.1796875 5.19140625 -1.875 7.5625 C-4.10627143 10.68043466 -4.10627143 10.68043466 -6 14 C-6.99 13.67 -7.98 13.34 -9 13 C-7.68889201 11.01989841 -6.37618664 9.04088963 -5.0625 7.0625 C-4.50272461 6.21655273 -4.50272461 6.21655273 -3.93164062 5.35351562 C-1.11328125 1.11328125 -1.11328125 1.11328125 0 0 Z " fill="#F6E675" transform="translate(264,310)"/>
        <path d="M0 0 C0.99 0.33 1.98 0.66 3 1 C1.28836717 2.87350354 -0.44107553 4.72191657 -2.1875 6.5625 C-2.67025391 7.09552734 -3.15300781 7.62855469 -3.65039062 8.17773438 C-5.10546875 9.69140625 -5.10546875 9.69140625 -8 12 C-10.86328125 11.83984375 -10.86328125 11.83984375 -13 11 C-12.1646875 10.6596875 -12.1646875 10.6596875 -11.3125 10.3125 C-8.34746553 8.6296426 -6.34646311 6.46378626 -4 4 C-2 2 -2 2 0 0 Z " fill="#CC9D21" transform="translate(709,678)"/>
        <path d="M0 0 C0.70189453 0.05671875 1.40378906 0.1134375 2.12695312 0.171875 C3.85630285 0.31304641 5.58454088 0.46771959 7.3125 0.625 C7.3125 0.955 7.3125 1.285 7.3125 1.625 C5.4871875 1.8415625 5.4871875 1.8415625 3.625 2.0625 C1.20775937 2.35188796 -1.01033981 2.70758693 -3.375 3.3125 C-6.32175472 3.7107101 -8.04989116 2.90612429 -10.6875 1.625 C-6.92241505 -0.88505664 -4.29288391 -0.4008295 0 0 Z " fill="#E7C84F" transform="translate(415.6875,323.375)"/>
        <path d="M0 0 C0.99 0.33 1.98 0.66 3 1 C0.43571997 5.17882671 -2.01930733 8.12505529 -6 11 C-6 7.39426104 -5.18292538 6.58663434 -3 3.8125 C-2.443125 3.09707031 -1.88625 2.38164063 -1.3125 1.64453125 C-0.879375 1.10183594 -0.44625 0.55914063 0 0 Z " fill="#CB9F25" transform="translate(729,585)"/>
        <path d="M0 0 C2.5654594 2.5654594 2.54046087 4.47686668 3 8 C-0.63 7.67 -4.26 7.34 -8 7 C-7.67 6.34 -7.34 5.68 -7 5 C-5.02 5 -3.04 5 -1 5 C-0.67 3.35 -0.34 1.7 0 0 Z " fill="#D2A427" transform="translate(561,594)"/>
        <path d="M0 0 C0.33 0 0.66 0 1 0 C0.70887831 6.41923331 -0.45215029 10.62100206 -4 16 C-5 14 -5 14 -4.44140625 12.1953125 C-4.15136719 11.51210938 -3.86132812 10.82890625 -3.5625 10.125 C-2.23097684 6.98427722 -2 5.59943974 -2 2 C-1.34 2 -0.68 2 0 2 C0 1.34 0 0.68 0 0 Z " fill="#E3B72F" transform="translate(795,293)"/>
        <path d="M0 0 C0.66 0.33 1.32 0.66 2 1 C1.25 8.625 1.25 8.625 -1 12 C-1.66 12 -2.32 12 -3 12 C-2.01 8.04 -1.02 4.08 0 0 Z " fill="#C19520" transform="translate(792,617)"/>
        <path d="M0 0 C1.23593906 3.70781718 0.56984348 4.52981968 -1 8 C-1.37125 8.928125 -1.7425 9.85625 -2.125 10.8125 C-2.41375 11.534375 -2.7025 12.25625 -3 13 C-4.1875 11.5 -4.1875 11.5 -5 9 C-4.34735505 6.17552815 -3.37790988 3.55146872 -2 1 C-1.34 0.67 -0.68 0.34 0 0 Z " fill="#D0A52A" transform="translate(680,446)"/>
        <path d="M0 0 C1.1875 1.5 1.1875 1.5 2 4 C1.27101296 6.78824238 0.1843275 9.37665092 -1 12 C-1.66 11.67 -2.32 11.34 -3 11 C-2.53199289 6.94393835 -2.12046792 3.53411321 0 0 Z " fill="#CFA52C" transform="translate(747,364)"/>
        <path d="M0 0 C2.31 0.33 4.62 0.66 7 1 C4.39457984 2.73694677 2.41657225 3.69100448 -0.5 4.6875 C-1.2734375 4.95949219 -2.046875 5.23148437 -2.84375 5.51171875 C-5 6 -5 6 -8 5 C-7.34 5 -6.68 5 -6 5 C-6 4.34 -6 3.68 -6 3 C-4.35 3 -2.7 3 -1 3 C-0.67 2.01 -0.34 1.02 0 0 Z " fill="#F0D84F" transform="translate(409,364)"/>
        <path d="M0 0 C1.58294782 -0.05437607 3.16644256 -0.09296271 4.75 -0.125 C5.63171875 -0.14820313 6.5134375 -0.17140625 7.421875 -0.1953125 C10.1135858 0.00860498 11.69904974 0.63448279 14 2 C14 2.66 14 3.32 14 4 C12.41532272 3.71572583 10.8322943 3.42225182 9.25 3.125 C7.92742187 2.88136719 7.92742187 2.88136719 6.578125 2.6328125 C4.13052256 2.03203736 2.19400143 1.22002883 0 0 Z " fill="#C99E28" transform="translate(360,682)"/>
        <path d="M0 0 C0.99 0 1.98 0 3 0 C2.9129995 1.62600941 2.8048219 3.25089678 2.6875 4.875 C2.62949219 5.77992188 2.57148437 6.68484375 2.51171875 7.6171875 C2 10 2 10 -1 12 C-2.3609623 9.2780754 -1.70366248 7.8168043 -1.0625 4.875 C-0.86785156 3.96492187 -0.67320312 3.05484375 -0.47265625 2.1171875 C-0.31667969 1.41851563 -0.16070313 0.71984375 0 0 Z " fill="#B28A20" transform="translate(771,611)"/>
        <path d="M0 0 C0.66 0 1.32 0 2 0 C2 2.64 2 5.28 2 8 C1.67 8 1.34 8 1 8 C0.67 10.97 0.34 13.94 0 17 C-0.33 17 -0.66 17 -1 17 C-1.02721176 15.10424749 -1.04649136 13.20838021 -1.0625 11.3125 C-1.07410156 10.25675781 -1.08570313 9.20101563 -1.09765625 8.11328125 C-1.00865425 5.27589738 -0.64939838 2.7561081 0 0 Z " fill="#E6C547" transform="translate(362,418)"/>
        <path d="M0 0 C0.33 0.99 0.66 1.98 1 3 C2.65 2.34 4.3 1.68 6 1 C2.25 7.875 2.25 7.875 0 9 C0 6.03 0 3.06 0 0 Z " fill="#1C160A" transform="translate(753,760)"/>
        <path d="M0 0 C0.33 0 0.66 0 1 0 C1.33 3.63 1.66 7.26 2 11 C1.01 11.33 0.02 11.66 -1 12 C-1.02712066 10.56260487 -1.04645067 9.12506137 -1.0625 7.6875 C-1.07410156 6.88699219 -1.08570313 6.08648438 -1.09765625 5.26171875 C-1 3 -1 3 0 0 Z " fill="#D3A226" transform="translate(718,608)"/>
        <path d="M0 0 C2 3 2 3 1.64453125 5.0078125 C1.36996094 5.70648437 1.09539063 6.40515625 0.8125 7.125 C0.55082031 7.82882812 0.28914062 8.53265625 0.01953125 9.2578125 C-1 11 -1 11 -4 12 C-3.67 10.02 -3.34 8.04 -3 6 C-2.34 6 -1.68 6 -1 6 C-0.67 4.02 -0.34 2.04 0 0 Z " fill="#C89A24" transform="translate(663,577)"/>
        <path d="M0 0 C0.99 0.33 1.98 0.66 3 1 C3.80078125 2.77734375 3.80078125 2.77734375 4.3125 4.9375 C4.49425781 5.64777344 4.67601562 6.35804688 4.86328125 7.08984375 C4.93095703 8.03537109 4.93095703 8.03537109 5 9 C4.34 9.66 3.68 10.32 3 11 C2.49384702 9.73160474 1.99530901 8.46016898 1.5 7.1875 C1.2215625 6.47980469 0.943125 5.77210938 0.65625 5.04296875 C0 3 0 3 0 0 Z " fill="#D2A62B" transform="translate(655,480)"/>
        <path d="M0 0 C1.32 0 2.64 0 4 0 C4.6875 1.75 4.6875 1.75 5 4 C3.5625 6.25 3.5625 6.25 2 8 C0.23537317 4.91190305 0 3.76687864 0 0 Z " fill="#E6C13C" transform="translate(563,329)"/>
        <path d="M0 0 C0.66 0.66 1.32 1.32 2 2 C0 5 0 5 -3.25 5.75 C-6.75282177 5.98352145 -9.58682276 5.74923403 -13 5 C-13 4.67 -13 4.34 -13 4 C-9.37 4 -5.74 4 -2 4 C-1.34 2.68 -0.68 1.36 0 0 Z " fill="#B68E21" transform="translate(690,646)"/>
        <path d="M0 0 C3.96 1.98 3.96 1.98 8 4 C7.67 4.99 7.34 5.98 7 7 C4.36 5.35 1.72 3.7 -1 2 C-0.67 1.34 -0.34 0.68 0 0 Z " fill="#CA9E26" transform="translate(770,578)"/>
        <path d="M0 0 C1.1875 1.5 1.1875 1.5 2 4 C1.39095434 6.85144105 0.49729165 9.49304042 -1 12 C-1.99 12.33 -2.98 12.66 -4 13 C-3.45276317 9.62537285 -2.9451 7.91765 -1 5 C-0.61500109 3.34450469 -0.27206865 1.6777567 0 0 Z " fill="#CC9F26" transform="translate(686,518)"/>
        <path d="M0 0 C0.33 0 0.66 0 1 0 C1 2.64 1 5.28 1 8 C0.34 8 -0.32 8 -1 8 C-1 9.98 -1 11.96 -1 14 C-1.66 13.34 -2.32 12.68 -3 12 C-2.79296875 9.94140625 -2.79296875 9.94140625 -2.1875 7.5625 C-1.99542969 6.78003906 -1.80335938 5.99757813 -1.60546875 5.19140625 C-1.12308568 3.44549076 -0.57279266 1.71837798 0 0 Z " fill="#15110A" transform="translate(277,374)"/>
        <path d="M0 0 C0.66 0 1.32 0 2 0 C2 1.32 2 2.64 2 4 C1.01 4 0.02 4 -1 4 C-1.28875 4.94875 -1.5775 5.8975 -1.875 6.875 C-3 10 -3 10 -5 12 C-4.42365861 7.24518354 -2.44931479 4.02951788 0 0 Z " fill="#F4DF5C" transform="translate(333,376)"/>
        <path d="M0 0 C1.32 0 2.64 0 4 0 C3.71125 0.556875 3.4225 1.11375 3.125 1.6875 C1.9586747 4.08494645 0.9660119 6.51596939 0 9 C-1.125 7.3125 -1.125 7.3125 -2 5 C-1.125 2.25 -1.125 2.25 0 0 Z " fill="#EDD465" transform="translate(243,345)"/>
        <path d="M0 0 C0 1.65 0 3.3 0 5 C-0.66 4.01 -1.32 3.02 -2 2 C-4.6556728 1.41651248 -4.6556728 1.41651248 -7.625 1.3125 C-8.62789063 1.24675781 -9.63078125 1.18101562 -10.6640625 1.11328125 C-11.43492187 1.07589844 -12.20578125 1.03851563 -13 1 C-13 0.67 -13 0.34 -13 0 C-11.39679026 -0.19551338 -9.79237014 -0.38111983 -8.1875 -0.5625 C-7.29417969 -0.66691406 -6.40085937 -0.77132813 -5.48046875 -0.87890625 C-3 -1 -3 -1 0 0 Z " fill="#EBC73E" transform="translate(518,323)"/>
        <path d="M0 0 C2.31 0 4.62 0 7 0 C7 0.99 7 1.98 7 3 C4.36 3 1.72 3 -1 3 C-0.67 2.01 -0.34 1.02 0 0 Z " fill="#BE9421" transform="translate(752,629)"/>
        <path d="M0 0 C0.66 0.66 1.32 1.32 2 2 C-0.13464912 4.45484649 -1.70720291 5.68134222 -5 6 C-5.66 5.34 -6.32 4.68 -7 4 C-4.69 2.68 -2.38 1.36 0 0 Z " fill="#E7D057" transform="translate(375,335)"/>
        <path d="M0 0 C-1.32 0.33 -2.64 0.66 -4 1 C-4 1.66 -4 2.32 -4 3 C-6.64 3.66 -9.28 4.32 -12 5 C-8.77464852 1.23708994 -4.90542108 -1.63514036 0 0 Z " fill="#F5E25B" transform="translate(388,331)"/>
        <path d="M0 0 C0.66 0.33 1.32 0.66 2 1 C2 1.66 2 2.32 2 3 C0.25 4.5078125 0.25 4.5078125 -2 6.125 C-2.7425 6.66382813 -3.485 7.20265625 -4.25 7.7578125 C-4.8275 8.16773438 -5.405 8.57765625 -6 9 C-4.68775452 5.06326356 -3.08089673 2.77280706 0 0 Z " fill="#E5B72F" transform="translate(476,766)"/>
        <path d="M0 0 C-4.07736659 2.71824439 -8.14531215 5.06640618 -13 6 C-8.86897764 1.57390462 -6.14917493 -0.34162083 0 0 Z " fill="#E4B72E" transform="translate(492,759)"/>
        <path d="M0 0 C1.32 0.33 2.64 0.66 4 1 C4.33 3.64 4.66 6.28 5 9 C4.67 8.34 4.34 7.68 4 7 C3.34 7 2.68 7 2 7 C1.34 4.69 0.68 2.38 0 0 Z " fill="#D5A72B" transform="translate(618,496)"/>
        <path d="M0 0 C0.33 0 0.66 0 1 0 C1.08159574 4.16138263 0.98248524 7.9472484 0 12 C-2 10 -2 10 -2.125 6.875 C-2.08375 5.92625 -2.0425 4.9775 -2 4 C-1.34 4 -0.68 4 0 4 C0 2.68 0 1.36 0 0 Z " fill="#F3DE57" transform="translate(268,405)"/>
        <path d="M0 0 C0.33 0.66 0.66 1.32 1 2 C1.66 2.33 2.32 2.66 3 3 C0.59454362 4.20272819 -0.94996953 4.10071472 -3.625 4.0625 C-4.85089844 4.04896484 -4.85089844 4.04896484 -6.1015625 4.03515625 C-7.04128906 4.01775391 -7.04128906 4.01775391 -8 4 C-5.33333333 2.66666667 -2.66666667 1.33333333 0 0 Z " fill="#ECD34E" transform="translate(425,361)"/>
        <path d="M0 0 C0.66 0.33 1.32 0.66 2 1 C-0.97 5.95 -0.97 5.95 -4 11 C-5 8 -5 8 -4.00390625 5.95703125 C-3.52824219 5.24933594 -3.05257812 4.54164063 -2.5625 3.8125 C-2.08941406 3.09707031 -1.61632812 2.38164063 -1.12890625 1.64453125 C-0.75636719 1.10183594 -0.38382813 0.55914063 0 0 Z " fill="#ECCE45" transform="translate(174,751)"/>
        <path d="M0 0 C0.66 0.33 1.32 0.66 2 1 C2.59355614 3.64860427 2.74209269 6.29197322 3 9 C2.01 8.67 1.02 8.34 0 8 C-0.79953138 4.71303767 -1.09658936 3.28976808 0 0 Z " fill="#E5C03E" transform="translate(556,304)"/>
        <path d="M0 0 C2 1.625 2 1.625 4 4 C4.25 7.25 4.25 7.25 4 10 C3.34 9.67 2.68 9.34 2 9 C1.3671875 6.93359375 1.3671875 6.93359375 0.875 4.4375 C0.70742188 3.61121094 0.53984375 2.78492188 0.3671875 1.93359375 C0.24601563 1.29550781 0.12484375 0.65742188 0 0 Z " fill="#E8C942" transform="translate(544,273)"/>
        <path d="M0 0 C2 1 2 1 3.1875 3.8125 C3.96421451 6.85961076 4.10096399 8.13749363 3 11 C0 4.5 0 4.5 0 0 Z " fill="#EED042" transform="translate(581,252)"/>
        <path d="M0 0 C1.5625 1.625 1.5625 1.625 3 4 C2.6875 7.25 2.6875 7.25 2 10 C0.23934164 7.35901246 -0.52722899 6.0257345 -1 3 C-0.67 2.01 -0.34 1.02 0 0 Z " fill="#CC9F29" transform="translate(637,547)"/>
        <path d="M0 0 C0 3.3 0 6.6 0 10 C-2 6 -2 6 -2 4 C-2.66 3.67 -3.32 3.34 -4 3 C-1.125 0 -1.125 0 0 0 Z " fill="#010105" transform="translate(430,828)"/>
        <path d="M0 0 C6.75 0.75 6.75 0.75 9 3 C9 3.66 9 4.32 9 5 C5.54074837 3.7508258 2.85306797 2.32472205 0 0 Z " fill="#D6AD2F" transform="translate(390,551)"/>
        <path d="M0 0 C0.99 0 1.98 0 3 0 C3.66 2.64 4.32 5.28 5 8 C4.34 8 3.68 8 3 8 C2.67 6.35 2.34 4.7 2 3 C1.34 3 0.68 3 0 3 C0 2.01 0 1.02 0 0 Z " fill="#18130C" transform="translate(584,401)"/>
        <path d="M0 0 C0.75 1.75 0.75 1.75 1 4 C-0.8125 6.25 -0.8125 6.25 -3 8 C-3.66 8 -4.32 8 -5 8 C-4.34 6.68 -3.68 5.36 -3 4 C-2.34 4 -1.68 4 -1 4 C-0.67 2.68 -0.34 1.36 0 0 Z " fill="#EBD35E" transform="translate(298,331)"/>
        <path d="M0 0 C0.66 1.32 1.32 2.64 2 4 C0.35 5.32 -1.3 6.64 -3 8 C-3.33 7.01 -3.66 6.02 -4 5 C-2.0625 2.3125 -2.0625 2.3125 0 0 Z " fill="#E8D56E" transform="translate(268,304)"/>
        <path d="M0 0 C3.36720387 1.39332574 4.9859524 2.9789286 7 6 C6.01 6 5.02 6 4 6 C4 5.34 4 4.68 4 4 C2.68 3.34 1.36 2.68 0 2 C0 1.34 0 0.68 0 0 Z " fill="#251D0E" transform="translate(276,630)"/>
        <path d="M0 0 C1.5625 1.625 1.5625 1.625 3 4 C2.6875 7.25 2.6875 7.25 2 10 C-0.4294516 6.3558226 -0.16179575 4.28758728 0 0 Z " fill="#EBC93E" transform="translate(228,529)"/>
        <path d="M0 0 C2.29013653 3.4352048 2.17842973 4.985331 2 9 C1.01 8.67 0.02 8.34 -1 8 C-0.67 5.36 -0.34 2.72 0 0 Z " fill="#E7C33A" transform="translate(268,518)"/>
        <path d="M0 0 C1.32 0.99 2.64 1.98 4 3 C3.67 4.32 3.34 5.64 3 7 C3.66 7.33 4.32 7.66 5 8 C4.01 8 3.02 8 2 8 C0.74335022 5.09399739 0 3.20395416 0 0 Z " fill="#E9C33A" transform="translate(569,348)"/>
        
        <rect x="0" y="0" width="1024" height="1024" rx="80" ry="80" fill="none" stroke="#FFD700" stroke-width="4" />
    </g>
</svg>
